<svg id="Address-amico" xmlns="http://www.w3.org/2000/svg" width="270" height="200" viewBox="0 0 270 200">
  <g id="freepik--Floor--inject-1--inject-32" transform="translate(0 61.188)">
    <path id="freepik--floor--inject-1--inject-32-2" data-name="freepik--floor--inject-1--inject-32" d="M77.334,355.984c52.72,27.1,138.2,27.1,190.917,0s52.72-71.053,0-98.158-138.2-27.1-190.917,0S24.607,328.879,77.334,355.984Z" transform="translate(-37.791 -237.498)" fill="#f0f0f0" opacity="0.7"/>
  </g>
  <g id="freepik--Shadow--inject-1--inject-32" transform="translate(33.641 85.966)">
    <ellipse id="freepik--shadow--inject-1--inject-32-2" data-name="freepik--shadow--inject-1--inject-32" cx="34.526" cy="16.455" rx="34.526" ry="16.455" transform="translate(0)" fill="#e0e0e0"/>
  </g>
  <g id="freepik--Line--inject-1--inject-32" transform="translate(107.977 114.657)">
    <g id="freepik--line--inject-1--inject-32-2" data-name="freepik--line--inject-1--inject-32" transform="translate(0)">
      <g id="freepik--Arrow--inject-1--inject-32">
        <path id="Path_320" data-name="Path 320" d="M201.24,328.446l7.107,4.1-2.367,1.368h9.468v-5.467l-2.367,1.368-7.1-4.1Z" transform="translate(-201.24 -325.71)" fill="#00a775"/>
      </g>
      <g id="freepik--line--inject-1--inject-32-3" data-name="freepik--line--inject-1--inject-32" transform="translate(16.004 8.992)">
        <path id="Path_321" data-name="Path 321" d="M230.015,342.747a.57.57,0,0,1-.291-.079l-1.768-1.023a.585.585,0,0,1,.587-1.011l1.768,1.023a.605.605,0,0,1-.3,1.09Z" transform="translate(-227.675 -340.564)" fill="#00a775"/>
        <path id="Path_322" data-name="Path 322" d="M308.886,388.294a.569.569,0,0,1-.291-.079l-3.408-1.968a.605.605,0,0,1,.605-1.011l3.4,1.968a.605.605,0,0,1-.291,1.09Zm-8.276-4.783a.606.606,0,0,1-.291-.073l-3.408-1.968a.605.605,0,1,1,.605-1.011l3.408,1.968a.605.605,0,0,1-.3,1.084Zm-8.276-4.777a.57.57,0,0,1-.291-.079l-3.408-1.986a.582.582,0,1,1,.587-1.005l3.408,1.968a.605.605,0,0,1-.3,1.084Zm-8.276-4.777a.569.569,0,0,1-.291-.079l-3.408-1.968a.585.585,0,0,1,.587-1.011l3.4,1.968a.605.605,0,0,1-.291,1.09Zm-8.276-4.777a.569.569,0,0,1-.291-.079l-3.408-1.968a.605.605,0,0,1,.605-1.011l3.408,1.968a.585.585,0,0,1-.315,1.09Zm-8.276-4.777a.605.605,0,0,1-.291-.079l-3.408-1.968a.605.605,0,1,1,.605-1.011l3.408,1.968a.586.586,0,0,1-.315,1.09Zm-8.276-4.783a.605.605,0,0,1-.291-.073l-3.408-1.968a.605.605,0,0,1,.605-1.011l3.408,1.968a.605.605,0,0,1-.3,1.084Zm-8.276-4.746a.57.57,0,0,1-.291-.079l-3.408-1.968a.585.585,0,0,1,.587-1.011l3.408,1.968a.605.605,0,0,1-.3,1.09Zm-8.276-4.777a.57.57,0,0,1-.291-.079l-3.408-1.968a.605.605,0,0,1,.605-1.011l3.408,1.968a.564.564,0,0,1-.315,1.059Z" transform="translate(-232.064 -343.108)" fill="#00a775"/>
        <path id="Path_323" data-name="Path 323" d="M364,420.1a.606.606,0,0,1-.291-.073l-1.768-1.023a.585.585,0,0,1,.587-1.011l1.762,1.023A.605.605,0,0,1,364,420.1Z" transform="translate(-280.547 -371.09)" fill="#00a775"/>
      </g>
    </g>
  </g>
  <g id="freepik--Pin--inject-1--inject-32" transform="translate(155.512 0)">
    <g id="freepik--pin--inject-1--inject-32-2" data-name="freepik--pin--inject-1--inject-32" transform="translate(0)">
      <path id="Path_324" data-name="Path 324" d="M367.3,160.283h0l-.545-.315-16.915-9.69a23.314,23.314,0,0,0-13.21-3.87c-5.915,0-11.884,2.144-18.913,6.056-24.561,13.615-45.545,52.872-45.545,78.648v7.1c0,31.239,41.071,69.369,41.071,69.369l17.03,9.842a.073.073,0,0,0,.073.03c-.569-.672,18.1-27.914,35.719-81.052C385.52,177.562,367.66,160.623,367.3,160.283Zm-28.745,93.4c-13.924,8.037-25.566,3.828-28.866-9.139-6.375-.878-10.982-5.784-12.4-13.839-1.786-26.042,12.029-46.749,31.814-55.155,8.476-3.083,15.547-.884,19.337,5.487,11.624-2,19.942,5.972,19.942,20.979C368.375,221.035,355.007,244.182,338.552,253.684Z" transform="translate(-272.17 -146.406)" fill="#455a64"/>
      <path id="Path_325" data-name="Path 325" d="M392.828,224.363c0,19.01-13.349,42.148-29.822,51.647-13.924,8.034-25.566,3.826-28.866-9.136,4.183.605,9.123-.515,14.433-3.584,15.087-8.7,27.3-29.877,27.3-47.276,0-5.17-1.078-9.426-2.991-12.623C384.51,201.394,392.828,209.361,392.828,224.363Z" transform="translate(-296.623 -168.749)" fill="#263238"/>
      <path id="Path_326" data-name="Path 326" d="M343.44,293.5l9.462,5.467V280.637l-9.462-5.467Z" transform="translate(-300.293 -197.181)" fill="#00a775"/>
      <path id="Path_327" data-name="Path 327" d="M343.44,293.5l7.826,4.665,1.637.8V280.637l-9.462-5.467Z" transform="translate(-282.293 -185.282)" fill="#00a775" opacity="0.2"/>
      <path id="Path_328" data-name="Path 328" d="M389.437,243.46,367.5,233.18,345.57,268.79l8.173-4.722V282.4l10.364-5.981V264.425l6.787-3.917v11.987l10.377-5.994V248.17Z" transform="translate(-301.133 -180.619)" fill="#00a775"/>
      <path id="Path_329" data-name="Path 329" d="M351.864,224.15l9.468,5.467L339.4,265.227l-9.469-5.467Z" transform="translate(-294.962 -177.06)" fill="#00a775"/>
      <path id="Path_330" data-name="Path 330" d="M351.864,224.15l9.468,5.467-23.026,19.237L329.93,259.76Z" transform="translate(-294.962 -177.061)" fill="#00a775" opacity="0.1"/>
      <path id="Path_331" data-name="Path 331" d="M366.16,224.15l9.469,5.467,21.934,10.28-9.469-5.467Z" transform="translate(-309.258 -177.064)" fill="#00a775"/>
      <path id="Path_333" data-name="Path 333" d="M376.19,294.23l6.787-3.923V278.32l-6.787,3.917Z" transform="translate(-313.216 -198.425)" fill="#00a775"/>
      <path id="Path_334" data-name="Path 334" d="M376.19,296.783l6.787-3.923-2.079-3.974-4.708-4.1Z" transform="translate(-313.216 -200.977)" fill="#00a775" opacity="0.2"/>
      <path id="Path_335" data-name="Path 335" d="M378.9,167.185h0l-.545-.315c-8.209-4.615-19.179-4-31.233,2.956-18.162,10.508-33.9,32.578-41.343,55.72-2.954,9.176-4.2,14.033-4.2,22.906v7.128c0,24.075,26.831,56.459,39.382,68.02a5.661,5.661,0,0,0,.914.69.073.073,0,0,0,.073.03,6.162,6.162,0,0,0,8.778-2.544c10.813-22.149,42.342-88.921,42.342-114.813v-7.1C393.068,183.81,387.644,172.442,378.9,167.185Zm-57.61,84.264c-.17-.66-.327-1.351-.448-2.059a32.638,32.638,0,0,1-.509-6.02c0-19.017,13.319-42.159,29.822-51.662a35.62,35.62,0,0,1,5.449-2.568,25.691,25.691,0,0,1,4.438-1.211c11.624-2,19.942,5.972,19.942,20.98,0,19.017-13.349,42.165-29.822,51.668C336.251,268.625,324.591,264.416,321.292,251.449Z" transform="translate(-283.775 -153.311)" fill="#37474f"/>
    </g>
  </g>
</svg>
