<svg id="Online_Doctor-rafiki" data-name="Online Doctor-rafiki" xmlns="http://www.w3.org/2000/svg" width="270" height="200" viewBox="0 0 270 200">
  <g id="freepik--background-complete--inject-124">
    <rect id="Rectangle_24" data-name="Rectangle 24" width="270" height="0.131" transform="translate(0 176.426)" fill="#ebebeb"/>
    <rect id="Rectangle_25" data-name="Rectangle 25" width="17.289" height="0.131" transform="translate(226.559 184.825)" fill="#ebebeb"/>
    <rect id="Rectangle_26" data-name="Rectangle 26" width="4.536" height="0.131" transform="translate(174.269 186.245)" fill="#ebebeb"/>
    <rect id="Rectangle_27" data-name="Rectangle 27" width="24.884" height="0.131" transform="translate(199.478 179.981)" fill="#ebebeb"/>
    <rect id="Rectangle_28" data-name="Rectangle 28" width="12.361" height="0.131" transform="translate(27.384 180.858)" fill="#ebebeb"/>
    <rect id="Rectangle_29" data-name="Rectangle 29" width="13.494" height="0.131" transform="translate(46.005 180.858)" fill="#ebebeb"/>
    <rect id="Rectangle_30" data-name="Rectangle 30" width="33.742" height="0.131" transform="translate(71.345 183.061)" fill="#ebebeb"/>
    <path id="Path_238" data-name="Path 238" d="M141.978,202.622H41.185a2.981,2.981,0,0,1-2.975-2.981V57.955A2.981,2.981,0,0,1,41.185,55H141.978a2.981,2.981,0,0,1,2.981,2.981v141.66A2.981,2.981,0,0,1,141.978,202.622ZM41.185,55.1a2.85,2.85,0,0,0-2.845,2.85V199.641a2.85,2.85,0,0,0,2.845,2.85H141.978a2.855,2.855,0,0,0,2.85-2.85V57.955a2.855,2.855,0,0,0-2.85-2.85Z" transform="translate(-18.264 -55)" fill="#ebebeb"/>
    <path id="Path_239" data-name="Path 239" d="M358.279,202.622h-100.8a2.986,2.986,0,0,1-2.981-2.981V57.955A2.986,2.986,0,0,1,257.481,55h100.8a2.981,2.981,0,0,1,2.97,2.955V199.641A2.981,2.981,0,0,1,358.279,202.622ZM257.481,55.1a2.855,2.855,0,0,0-2.85,2.85V199.641a2.855,2.855,0,0,0,2.85,2.85h100.8a2.855,2.855,0,0,0,2.85-2.85V57.955a2.855,2.855,0,0,0-2.85-2.85Z" transform="translate(-112.651 -55)" fill="#ebebeb"/>
    <rect id="Rectangle_31" data-name="Rectangle 31" width="82.46" height="162.854" transform="translate(156.956 13.572)" fill="#ebebeb"/>
    <rect id="Rectangle_32" data-name="Rectangle 32" width="70.193" height="157.723" transform="translate(163.089 18.703)" fill="#f5f5f5"/>
    <rect id="Rectangle_33" data-name="Rectangle 33" width="19.737" height="5.455" transform="translate(186.012 32.312)" fill="#fff"/>
    <path id="Path_240" data-name="Path 240" d="M396.84,218.82h10.706a1.67,1.67,0,0,1,1.67,1.67h0a1.67,1.67,0,0,1-1.67,1.67H396.84a1.67,1.67,0,0,1-1.67-1.67h0a1.67,1.67,0,0,1,1.67-1.67Z" transform="translate(-181.374 -130.645)" fill="#fff"/>
    <rect id="Rectangle_34" data-name="Rectangle 34" width="54.841" height="44.198" transform="translate(36.738 31.538)" fill="#ebebeb"/>
    <rect id="Rectangle_35" data-name="Rectangle 35" width="38.31" height="48.953" transform="translate(90.314 34.545) rotate(90)" fill="#fafafa"/>
    <rect id="Rectangle_36" data-name="Rectangle 36" width="1.832" height="37.537" transform="translate(84.753 52.659) rotate(90)" fill="#e0e0e0"/>
    <rect id="Rectangle_37" data-name="Rectangle 37" width="1.832" height="37.537" transform="translate(84.753 56.959) rotate(90)" fill="#e0e0e0"/>
    <rect id="Rectangle_38" data-name="Rectangle 38" width="1.832" height="37.537" transform="translate(84.753 61.253) rotate(90)" fill="#e0e0e0"/>
    <rect id="Rectangle_39" data-name="Rectangle 39" width="1.832" height="18.714" transform="translate(75.549 65.552) rotate(90)" fill="#e0e0e0"/>
    <path id="Path_241" data-name="Path 241" d="M79.046,116.014A5.705,5.705,0,0,1,73.3,121.72a5.648,5.648,0,0,1-2.944-.82v-7.83h7.83a5.706,5.706,0,0,1,.856,2.944Z" transform="translate(-33.632 -81.785)" fill="#ebebeb"/>
    <path id="Path_242" data-name="Path 242" d="M167.522,113.07v7.83a5.705,5.705,0,0,1-7.83-7.83Z" transform="translate(-72.985 -81.785)" fill="#ebebeb"/>
    <path id="Path_243" data-name="Path 243" d="M79.084,186.888a5.674,5.674,0,0,1-.814,2.939H70.44V182a5.711,5.711,0,0,1,8.644,4.891Z" transform="translate(-33.67 -113.204)" fill="#ebebeb"/>
    <path id="Path_244" data-name="Path 244" d="M167.52,181.98v7.83h-7.83a5.627,5.627,0,0,1-.82-2.939,5.716,5.716,0,0,1,8.655-4.9Z" transform="translate(-72.982 -113.193)" fill="#ebebeb"/>
    <circle id="Ellipse_1" data-name="Ellipse 1" cx="4.86" cy="4.86" r="4.86" transform="translate(60.693 47.814) rotate(-80.78)" fill="#e0e0e0"/>
    <rect id="Rectangle_40" data-name="Rectangle 40" width="108.513" height="3.905" transform="translate(27.384 111.508)" fill="#ebebeb"/>
    <rect id="Rectangle_41" data-name="Rectangle 41" width="35.256" height="58.866" transform="translate(103.677 117.561)" fill="#f5f5f5"/>
    <rect id="Rectangle_42" data-name="Rectangle 42" width="35.256" height="58.866" transform="translate(28.726 117.561)" fill="#f5f5f5"/>
    <rect id="Rectangle_43" data-name="Rectangle 43" width="1.206" height="58.866" transform="translate(28.726 117.561)" fill="#ebebeb"/>
    <rect id="Rectangle_44" data-name="Rectangle 44" width="1.206" height="58.866" transform="translate(103.156 117.561)" fill="#ebebeb"/>
    <path id="Path_245" data-name="Path 245" d="M84.563,244.12H78.08l.522,9.412h5.439Z" transform="translate(-37.322 -142.219)" fill="#f0f0f0"/>
    <rect id="Rectangle_45" data-name="Rectangle 45" width="33.873" height="4.082" transform="translate(72.416 107.302)" fill="#f0f0f0"/>
    <rect id="Rectangle_46" data-name="Rectangle 46" width="15.618" height="3.127" transform="translate(91.14 107.779)" fill="#fafafa"/>
  </g>
  <g id="freepik--Shadow--inject-124" transform="translate(29.289 188.182)">
    <ellipse id="freepik--path--inject-124" cx="105.711" cy="5.909" rx="105.711" ry="5.909" fill="#f5f5f5"/>
  </g>
  <g id="freepik--cross-icon--inject-124" transform="translate(167.478 122.813)">
    <circle id="Ellipse_2" data-name="Ellipse 2" cx="16.537" cy="16.537" r="16.537" transform="translate(0.209 0.204)" fill="#fff"/>
    <path id="Path_246" data-name="Path 246" d="M325.376,315.951a16.741,16.741,0,1,1,16.735-16.739A16.741,16.741,0,0,1,325.376,315.951Zm0-33.069a16.333,16.333,0,1,0,16.333,16.332,16.333,16.333,0,0,0-16.333-16.332Z" transform="translate(-308.63 -282.47)" fill="#407bff"/>
    <rect id="Rectangle_47" data-name="Rectangle 47" width="5.324" height="18.75" transform="translate(14.084 7.365)" fill="#00a775"/>
    <rect id="Rectangle_48" data-name="Rectangle 48" width="5.324" height="18.75" transform="translate(26.121 14.084) rotate(90)" fill="#00a775"/>
  </g>
  <g id="freepik--pulse-icon--inject-124" transform="translate(63.87 5.867)">
    <path id="Path_247" data-name="Path 247" d="M125.785,70.849l-.355-.381A16.052,16.052,0,0,1,134.2,66.24l.073.522a15.524,15.524,0,0,0-8.493,4.087Z" transform="translate(-121.437 -66.24)" fill="#00a775"/>
    <path id="Path_248" data-name="Path 248" d="M118.265,82.415l-.485-.188a16.061,16.061,0,0,1,2.088-3.727l.418.313a15.786,15.786,0,0,0-2.02,3.6Z" transform="translate(-117.78 -72.1)" fill="#00a775"/>
    <circle id="Ellipse_3" data-name="Ellipse 3" cx="14.324" cy="14.324" r="14.324" transform="translate(0.726 1.665)" fill="#00a775"/>
    <path id="Path_249" data-name="Path 249" d="M145.877,82.832a5.982,5.982,0,0,0-8.54-.078,5.977,5.977,0,0,0-8.535.078,6.113,6.113,0,0,0,.214,8.519l6.786,6.786a2.192,2.192,0,0,0,3.1,0l6.786-6.786A6.113,6.113,0,0,0,145.877,82.832Z" transform="translate(-122.273 -73.296)" fill="#fff"/>
    <path id="Path_250" data-name="Path 250" d="M136.687,98.491h0a.522.522,0,0,1-.475-.35L133.189,89.3,131.926,93a.522.522,0,0,1-.5.35h-5.058a.522.522,0,1,1,0-1.044h4.7l1.639-4.787a.522.522,0,0,1,.987,0l3.075,8.994,2.986-7.031a.52.52,0,0,1,.934-.052l1.576,2.871h4.755a.522.522,0,0,1,0,1.044h-5.058a.522.522,0,0,1-.459-.266l-1.237-2.213-3.1,7.308A.522.522,0,0,1,136.687,98.491Z" transform="translate(-121.637 -76.243)" fill="#00a775"/>
  </g>
  <g id="freepik--Character--inject-124" transform="translate(76.874 11.643)">
    <path id="Path_251" data-name="Path 251" d="M243.046,254.58H188.565a6.289,6.289,0,0,1-4.743-2.1,6.8,6.8,0,0,1-1.709-5.052l8.806-135.5a7.663,7.663,0,0,1,7.386-7.181H252.8a6.29,6.29,0,0,1,4.753,2.112,6.8,6.8,0,0,1,1.7,5.069l-8.822,135.5A7.656,7.656,0,0,1,243.046,254.58Z" transform="translate(-159.859 -90.423)" fill="#263238"/>
    <path id="Path_252" data-name="Path 252" d="M319.088,180.179h-1.373a1.785,1.785,0,0,1-1.8-1.931L317.6,153.3a2.088,2.088,0,0,1,2.062-1.931h1.373a1.785,1.785,0,0,1,1.8,1.931l-1.686,24.946A2.088,2.088,0,0,1,319.088,180.179Z" transform="translate(-223.822 -111.266)" fill="#263238"/>
    <path id="Path_253" data-name="Path 253" d="M194.871,163.562H193.5A1.462,1.462,0,0,1,192.027,162l.611-9.01a1.723,1.723,0,0,1,1.686-1.566H195.7a1.467,1.467,0,0,1,1.472,1.566l-.611,9.01A1.717,1.717,0,0,1,194.871,163.562Z" transform="translate(-164.605 -111.435)" fill="#407bff"/>
    <path id="Path_254" data-name="Path 254" d="M192.791,194.382h-1.373a1.462,1.462,0,0,1-1.472-1.566l.611-9.01a1.723,1.723,0,0,1,1.686-1.566h1.383a1.467,1.467,0,0,1,1.472,1.566l-.611,9.01a1.717,1.717,0,0,1-1.7,1.566Z" transform="translate(-163.611 -125.627)" fill="#407bff"/>
    <path id="Path_255" data-name="Path 255" d="M240.836,254.6H186.355a6.289,6.289,0,0,1-4.743-2.1,6.8,6.8,0,0,1-1.709-5.052l8.811-135.5a7.66,7.66,0,0,1,7.412-7.16h54.46a6.289,6.289,0,0,1,4.745,2.1,6.8,6.8,0,0,1,1.707,5.055l-8.817,135.5A7.656,7.656,0,0,1,240.836,254.6Z" transform="translate(-158.802 -90.442)" fill="#00a775"/>
    <path id="Path_256" data-name="Path 256" d="M181.02,248.587l8.6-127.347h67.369l-8.6,127.347Z" transform="translate(-159.346 -98.305)" fill="#fff" opacity="0.3"/>
    <path id="Path_257" data-name="Path 257" d="M231.97,248.587,256.013,121.24H271.1L247.061,248.587Z" transform="translate(-183.7 -98.305)" fill="#fff" opacity="0.1"/>
    <path id="Path_258" data-name="Path 258" d="M210.13,248.587,234.173,121.24h7.647L217.777,248.587Z" transform="translate(-173.26 -98.305)" fill="#fff" opacity="0.1"/>
    <path id="Path_259" data-name="Path 259" d="M249.306,110.92h13.139a.783.783,0,0,1,.793.851h0a.929.929,0,0,1-.908.856H249.191a.788.788,0,0,1-.793-.856h0A.924.924,0,0,1,249.306,110.92Z" transform="translate(-191.55 -93.372)" fill="#fff"/>
    <path id="Path_260" data-name="Path 260" d="M239.164,395.518l-4.6.438-1.66-10.623,4.6-.444Z" transform="translate(-184.144 -218.806)" fill="#ffb573"/>
    <path id="Path_261" data-name="Path 261" d="M228.431,400.391l4.823-1.5a.339.339,0,0,1,.428.2l1.566,3.826a.793.793,0,0,1-.522,1.044,37.846,37.846,0,0,0-5.507,1.566c-2.459,1.044-3.487,2.443-6.133,2.443-1.895,0-2.323-1.738-1.519-1.978,3.654-1.107,3.174-2.015,5.826-4.87A2.443,2.443,0,0,1,228.431,400.391Z" transform="translate(-178.543 -225.491)" fill="#263238"/>
    <path id="Path_262" data-name="Path 262" d="M232.9,385.334l.856,5.481,4.609-.444-.856-5.481Z" transform="translate(-184.144 -218.806)" opacity="0.2"/>
    <path id="Path_263" data-name="Path 263" d="M218.639,128.295a58.53,58.53,0,0,0-18.077.934,4.818,4.818,0,0,0-3.868,4.176c-.652,5.773-1.4,18.714,1.514,38.017l24.68-2.088c.047-3.5-2.443-19.46-.386-36.018a4.421,4.421,0,0,0-3.863-5.022Z" transform="translate(-166.553 -101.518)" fill="#fff"/>
    <path id="Path_264" data-name="Path 264" d="M211.75,137.411l.882,1.764a.522.522,0,0,0,.465.3l.955.052a.741.741,0,0,0,.475-.146l1.644-1.227-2.031-1.477Z" transform="translate(-174.034 -105.686)" fill="#263238"/>
    <path id="Path_265" data-name="Path 265" d="M213.629,141.034a1.608,1.608,0,0,0-1.112-.089,86.828,86.828,0,0,0-1.717,14.094c2.359,6.875,3.132,7.569,3.132,7.569l1.2-8.274S213.786,145.873,213.629,141.034Z" transform="translate(-173.58 -106.514)" fill="#263238"/>
    <path id="Path_266" data-name="Path 266" d="M220.209,105.8c-.564,3.4-1.044,9.62,1.4,11.818-1.79,1.879-4.134,4.056-8.154,4.3s-3.4-2.537-2.38-4.025c3.753-1,3.57-3.8,2.834-6.415Z" transform="translate(-173.348 -90.925)" fill="#ffb573"/>
    <path id="Path_267" data-name="Path 267" d="M225.507,127.6a5.01,5.01,0,0,0-.882-.287.35.35,0,0,0-.391.162c-.386.658-1.566,3.6-7.9,4.724a13.134,13.134,0,0,1,3.022,3.445c1.9-.987,6.843-3.936,6.374-7.752A.386.386,0,0,0,225.507,127.6Z" transform="translate(-176.224 -101.201)" fill="#f5f5f5"/>
    <path id="Path_268" data-name="Path 268" d="M209.176,128.862a.365.365,0,0,0-.428-.438,4.9,4.9,0,0,0-.647.172.522.522,0,0,0-.136.078c-.485.449-3.132,4.27-.653,7.36a9.037,9.037,0,0,1,4.207-3.3A3.506,3.506,0,0,1,209.176,128.862Z" transform="translate(-171.414 -101.736)" fill="#f5f5f5"/>
    <path id="Path_269" data-name="Path 269" d="M220.937,110.24,217.21,113.6a10.764,10.764,0,0,1,.376,1.858c1.441-.245,3.377-1.879,3.482-3.393a4.948,4.948,0,0,0-.131-1.827Z" transform="translate(-176.644 -93.047)" opacity="0.2"/>
    <path id="Path_270" data-name="Path 270" d="M211.855,85.8c-3.216,1.258-3.424,3.9-3.132,6.786s3.435.976,4.134-.83S216.307,84.055,211.855,85.8Z" transform="translate(-172.542 -81.212)" fill="#263238"/>
    <path id="Path_271" data-name="Path 271" d="M222.047,90.3c-.893,4.547-1.19,7.245-3.79,9.339a5.979,5.979,0,0,1-9.7-4.26c-.423-4.223,1.107-10.962,5.789-12.277a6.118,6.118,0,0,1,7.7,7.2Z" transform="translate(-172.477 -79.956)" fill="#ffb573"/>
    <path id="Path_272" data-name="Path 272" d="M220.873,91.411c-3.826.2-3.017-1.968-2.323-3.216s-.72-3.309.2-4.38c-1.65.658-3.388.115-5.6-1.42-1.712-1.2-3.858,3.581-5.946,1.185-1.973-2.26-.141-5.669,4.6-6.217s5.6,2.8,8.712,2.506,2.031,2.265,1.42,2.787C224.553,82.83,225.978,85.325,220.873,91.411Z" transform="translate(-171.491 -77.304)" fill="#263238"/>
    <path id="Path_273" data-name="Path 273" d="M235,85.116a3.831,3.831,0,0,0,1.989-3.336C238.022,83.591,237.913,85.648,235,85.116Z" transform="translate(-185.148 -79.443)" fill="#263238"/>
    <path id="Path_274" data-name="Path 274" d="M215.484,105.737a3.132,3.132,0,0,0,2.391-.564.1.1,0,0,0,0-.151.11.11,0,0,0-.151,0,3.012,3.012,0,0,1-2.657.412.12.12,0,0,0-.141.073.11.11,0,0,0,.073.136,2.762,2.762,0,0,0,.485.094Z" transform="translate(-175.55 -90.539)" fill="#263238"/>
    <path id="Path_275" data-name="Path 275" d="M232.04,104.036a4.447,4.447,0,0,1-2.918,1.681c-1.519.2-2.025-1.216-1.389-2.537.579-1.19,2.088-2.725,3.487-2.312A1.942,1.942,0,0,1,232.04,104.036Z" transform="translate(-181.546 -88.534)" fill="#ffb573"/>
    <path id="Path_276" data-name="Path 276" d="M217.485,254.163c.183-13.629,1.926-46.093,1.926-46.093l-19.241,1.623S204,243.148,206.3,257.055c2.4,14.454,9.767,48.316,9.767,48.316l7.83-.668S221.04,264.7,217.485,254.163Z" transform="translate(-168.499 -134.286)" fill="#263238"/>
    <path id="Path_277" data-name="Path 277" d="M229.037,391.414l9.286-.788-.365-3-9.678.647Z" transform="translate(-181.936 -220.116)" fill="#407bff"/>
    <path id="Path_278" data-name="Path 278" d="M220.518,96.974c-.047.371-.287.653-.522.626s-.4-.35-.345-.726.287-.653.522-.626S220.57,96.6,220.518,96.974Z" transform="translate(-177.806 -86.358)" fill="#263238"/>
    <path id="Path_279" data-name="Path 279" d="M212.358,96.339c-.047.376-.287.653-.522.626s-.4-.35-.345-.72.287-.653.522-.626S212.41,95.947,212.358,96.339Z" transform="translate(-173.906 -86.057)" fill="#263238"/>
    <path id="Path_280" data-name="Path 280" d="M213.4,97.84a12.957,12.957,0,0,1-2.245,2.61,2.272,2.272,0,0,0,1.7.423Z" transform="translate(-173.752 -87.12)" fill="#ed893e"/>
    <path id="Path_281" data-name="Path 281" d="M207.994,97.18c-.078.6.522,1.091,1.352,1.2a1.421,1.421,0,0,0,1.67-.945" transform="translate(-172.236 -86.805)" fill="#407bff" opacity="0.4"/>
    <path id="Path_282" data-name="Path 282" d="M217.437,98.24c-.115.59.465,1.122,1.279,1.279a1.427,1.427,0,0,0,1.723-.846" transform="translate(-176.746 -87.311)" fill="#407bff" opacity="0.4"/>
    <path id="Path_283" data-name="Path 283" d="M214.412,99.117a2.553,2.553,0,0,1-.282,0,1.984,1.984,0,0,1-1.081-.485,1.086,1.086,0,0,1-.376-.924,2.61,2.61,0,0,0-.835-.209,1.822,1.822,0,0,0-.882,0c-.073.637-.867,1.075-1.754.966a1.942,1.942,0,0,1-1.081-.48,1.1,1.1,0,0,1-.376-.924l.251.031a.84.84,0,0,0,.3.71,1.691,1.691,0,0,0,.94.412c.752.1,1.42-.251,1.488-.773.037-.292.642-.271,1.143-.209s1.1.2,1.044.491a.835.835,0,0,0,.3.71,1.8,1.8,0,0,0,1.957.251.835.835,0,0,0,.47-.611v-.125l6.441.83-.031.251-6.2-.8a1.122,1.122,0,0,1-.574.673A1.843,1.843,0,0,1,214.412,99.117Z" transform="translate(-172.119 -86.747)" fill="#263238"/>
    <path id="Path_284" data-name="Path 284" d="M222.916,93.19a.188.188,0,0,0,.1-.031.224.224,0,0,0,.084-.3,2.088,2.088,0,0,0-1.639-1.1.224.224,0,0,0-.235.209.219.219,0,0,0,.2.23h0a1.676,1.676,0,0,1,1.289.887A.214.214,0,0,0,222.916,93.19Z" transform="translate(-178.566 -84.214)" fill="#263238"/>
    <path id="Path_285" data-name="Path 285" d="M210.344,92.256a.224.224,0,0,0,.193-.078,1.78,1.78,0,0,1,1.441-.7.219.219,0,0,0,.24-.2.214.214,0,0,0-.188-.24,2.245,2.245,0,0,0-1.827.861.219.219,0,0,0,.026.308A.266.266,0,0,0,210.344,92.256Z" transform="translate(-173.27 -83.869)" fill="#263238"/>
    <path id="Path_286" data-name="Path 286" d="M239.031,251.53c-3.993-20.525-4.891-36.577-8.681-44.37l-18.641,2.088s11.1,30.584,16.527,43.639c5.632,13.572,16.751,36.759,16.751,36.759H254.3S245.609,260.879,239.031,251.53Z" transform="translate(-174.015 -135.412)" fill="#263238"/>
    <path id="Path_287" data-name="Path 287" d="M145.429,141.9l-2.015-1.274a1.681,1.681,0,0,0-2.119.245l-1.368,1.441a1.566,1.566,0,0,0,.136,2.281l.976.835a7.961,7.961,0,0,0,2.908,1.566l2.949.872,1.937-2.088C149.422,143.6,145.429,141.9,145.429,141.9Z" transform="translate(-139.498 -106.37)" fill="#ffb573"/>
    <path id="Path_288" data-name="Path 288" d="M179.091,139.04c-.731,1.785-1.446,3.445-2.224,5.142s-1.566,3.372-2.438,5.037-1.8,3.32-2.855,4.98a28.622,28.622,0,0,1-1.759,2.48,15.838,15.838,0,0,1-2.4,2.49,8.617,8.617,0,0,1-1.926,1.19c-.219.084-.423.167-.663.24l-.365.1a4.358,4.358,0,0,1-.559.1,5.22,5.22,0,0,1-1.9-.136,7.737,7.737,0,0,1-2.182-1,12.528,12.528,0,0,1-1.436-1.044,34.3,34.3,0,0,1-4.15-4.317c-1.216-1.462-2.365-2.928-3.466-4.427s-2.161-2.97-3.247-4.541l5.773-3.727a77.871,77.871,0,0,0,6.034,8.43,28.416,28.416,0,0,0,3.325,3.44,6.555,6.555,0,0,0,.736.522c.193.131.386.183.251.136a1.336,1.336,0,0,0-.564-.031,1.242,1.242,0,0,0-.224.042h-.073a3.158,3.158,0,0,0,.339-.256,9.63,9.63,0,0,0,1.289-1.43c.444-.6.887-1.263,1.31-1.957a47.878,47.878,0,0,0,2.359-4.458c.731-1.566,1.436-3.132,2.088-4.761s1.274-3.283,1.8-4.865Z" transform="translate(-143.333 -104.444)" fill="#407bff"/>
    <g id="Group_8" data-name="Group 8" transform="translate(4.188 31.976)" opacity="0.6">
      <path id="Path_289" data-name="Path 289" d="M179.091,139.04c-.731,1.785-1.446,3.445-2.224,5.142s-1.566,3.372-2.438,5.037-1.8,3.32-2.855,4.98a28.622,28.622,0,0,1-1.759,2.48,15.838,15.838,0,0,1-2.4,2.49,8.617,8.617,0,0,1-1.926,1.19c-.219.084-.423.167-.663.24l-.365.1a4.358,4.358,0,0,1-.559.1,5.22,5.22,0,0,1-1.9-.136,7.737,7.737,0,0,1-2.182-1,12.528,12.528,0,0,1-1.436-1.044,34.3,34.3,0,0,1-4.15-4.317c-1.216-1.462-2.365-2.928-3.466-4.427s-2.161-2.97-3.247-4.541l5.773-3.727a77.871,77.871,0,0,0,6.034,8.43,28.416,28.416,0,0,0,3.325,3.44,6.555,6.555,0,0,0,.736.522c.193.131.386.183.251.136a1.336,1.336,0,0,0-.564-.031,1.242,1.242,0,0,0-.224.042h-.073a3.158,3.158,0,0,0,.339-.256,9.63,9.63,0,0,0,1.289-1.43c.444-.6.887-1.263,1.31-1.957a47.878,47.878,0,0,0,2.359-4.458c.731-1.566,1.436-3.132,2.088-4.761s1.274-3.283,1.8-4.865Z" transform="translate(-147.52 -136.42)" fill="#fff"/>
    </g>
    <path id="Path_290" data-name="Path 290" d="M214.693,126.028c-1.958,3.654-8.926,17.576-9.772,26.168-3.085-7.83-2.412-25.15-2.412-25.15a23.193,23.193,0,0,0-6.4,1.566,3.868,3.868,0,0,0-2.386,3.268,136.8,136.8,0,0,0,.846,26.867c2.166,16.861,4.176,43.081,4.176,43.081s17.252-.72,30.563-3.529c-1.623-12.888-7.178-34.489-7.23-40.272-.063-7.444.11-22,.345-28.073a3.6,3.6,0,0,0-2.881-3.691A18.045,18.045,0,0,0,214.693,126.028Z" transform="translate(-165.269 -100.562)" fill="#407bff"/>
    <path id="Path_291" data-name="Path 291" d="M214.693,126.028c-1.958,3.654-8.926,17.576-9.772,26.168-3.085-7.83-2.412-25.15-2.412-25.15a23.192,23.192,0,0,0-6.4,1.566,3.868,3.868,0,0,0-2.386,3.268,136.8,136.8,0,0,0,.846,26.867c2.166,16.861,4.176,43.081,4.176,43.081s17.252-.72,30.563-3.529c-1.623-12.888-7.178-34.489-7.23-40.272-.063-7.444.11-22,.345-28.078a3.539,3.539,0,0,0-2.72-3.654A17.91,17.91,0,0,0,214.693,126.028Z" transform="translate(-165.269 -100.561)" fill="#fff" opacity="0.7"/>
    <path id="Path_292" data-name="Path 292" d="M221.295,225.917c-3-16.532-5.371-40.789-5.565-43.707H216c.193,2.918,2.573,27.144,5.565,43.676Z" transform="translate(-175.937 -125.179)" fill="#fff"/>
    <path id="Path_293" data-name="Path 293" d="M202.8,184.882H186.885a1.488,1.488,0,0,1-1.378-1.133l-5.319-24.727a.887.887,0,0,1,.887-1.133h15.905a1.488,1.488,0,0,1,1.383,1.133l5.319,24.727a.887.887,0,0,1-.887,1.133Z" transform="translate(-158.931 -114.274)" fill="#fff"/>
    <path id="Path_294" data-name="Path 294" d="M201.488,184.861H185.306a1.519,1.519,0,0,1-1.4-1.154l-5.413-25.145a.908.908,0,0,1,.908-1.154h16.182a1.519,1.519,0,0,1,1.4,1.154l5.408,25.145a.9.9,0,0,1-.9,1.154Z" transform="translate(-158.119 -114.049)" fill="#00a775"/>
    <path id="Path_295" data-name="Path 295" d="M218.331,182.68l-4.025-.151a3.451,3.451,0,0,0-1.415.251l-2.088.835a1.566,1.566,0,0,0-.856,2.088l.835,1.806a1.691,1.691,0,0,0,1.931.908l2.3-.574s4.322-.345,4.479-2.61Z" transform="translate(-173.109 -125.826)" fill="#ffb573"/>
    <path id="Path_296" data-name="Path 296" d="M235.58,130.38c1,1.566,1.911,3,2.808,4.531s1.78,3.054,2.61,4.641,1.618,3.226,2.333,4.98a25.363,25.363,0,0,1,.95,2.814,11.792,11.792,0,0,1,.459,3.586v.2a1,1,0,0,1,0,.1,3.014,3.014,0,0,1-.089.564c-.037.188-.084.334-.136.522a3.6,3.6,0,0,1-.167.433,5.83,5.83,0,0,1-.762,1.263,9.11,9.11,0,0,1-1.446,1.441,19.006,19.006,0,0,1-2.61,1.728,49.729,49.729,0,0,1-4.969,2.37c-1.644.7-3.283,1.336-4.933,1.937s-3.273,1.18-4.99,1.754l-1.989-6.577c1.566-.428,3.163-.955,4.724-1.488s3.132-1.128,4.614-1.749a40.671,40.671,0,0,0,4.249-2.051,12.263,12.263,0,0,0,1.655-1.1,1.988,1.988,0,0,0,.365-.36.558.558,0,0,0-.1.172.343.343,0,0,1-.052.136,1.236,1.236,0,0,0-.047.188,1.267,1.267,0,0,0-.042.245c0,.031,0,.037,0,.026v-.037a6.138,6.138,0,0,0-.287-1.456,18.83,18.83,0,0,0-.741-2.01,40.767,40.767,0,0,0-2.161-4.213c-.814-1.4-1.681-2.8-2.61-4.176s-1.879-2.751-2.834-4Z" transform="translate(-179.245 -101.612)" fill="#407bff"/>
    <g id="Group_9" data-name="Group 9" transform="translate(43.405 28.768)" opacity="0.7">
      <path id="Path_297" data-name="Path 297" d="M235.58,130.38c1,1.566,1.911,3,2.808,4.531s1.78,3.054,2.61,4.641,1.618,3.226,2.333,4.98a25.363,25.363,0,0,1,.95,2.814,11.792,11.792,0,0,1,.459,3.586v.2a1,1,0,0,1,0,.1,3.014,3.014,0,0,1-.089.564c-.037.188-.084.334-.136.522a3.6,3.6,0,0,1-.167.433,5.83,5.83,0,0,1-.762,1.263,9.11,9.11,0,0,1-1.446,1.441,19.006,19.006,0,0,1-2.61,1.728,49.729,49.729,0,0,1-4.969,2.37c-1.644.7-3.283,1.336-4.933,1.937s-3.273,1.18-4.99,1.754l-1.989-6.577c1.566-.428,3.163-.955,4.724-1.488s3.132-1.128,4.614-1.749a40.671,40.671,0,0,0,4.249-2.051,12.263,12.263,0,0,0,1.655-1.1,1.988,1.988,0,0,0,.365-.36.558.558,0,0,0-.1.172.343.343,0,0,1-.052.136,1.236,1.236,0,0,0-.047.188,1.267,1.267,0,0,0-.042.245c0,.031,0,.037,0,.026v-.037a6.138,6.138,0,0,0-.287-1.456,18.83,18.83,0,0,0-.741-2.01,40.767,40.767,0,0,0-2.161-4.213c-.814-1.4-1.681-2.8-2.61-4.176s-1.879-2.751-2.834-4Z" transform="translate(-222.65 -130.38)" fill="#fff"/>
    </g>
    <path id="Path_298" data-name="Path 298" d="M230.609,149.96a.209.209,0,0,1-.11-.386l.814-.522a4.437,4.437,0,0,0,1.984-4.625l-1.639-8.3a2.808,2.808,0,0,0-5.46-.23l-2.323,8.138a4.421,4.421,0,0,0,1.566,4.771l.773.585a.209.209,0,0,1,.037.292.2.2,0,0,1-.287.037l-.731-.579a4.844,4.844,0,0,1-1.738-5.22l2.328-8.138a3.226,3.226,0,0,1,6.264.261l1.639,8.305a4.844,4.844,0,0,1-2.166,5.053l-.82.522A.172.172,0,0,1,230.609,149.96Z" transform="translate(-179.556 -103.132)" fill="#263238"/>
    <path id="Path_299" data-name="Path 299" d="M234.15,138.3h0l-5.862-.245a.209.209,0,0,1-.2-.219.219.219,0,0,1,.219-.2l5.857.245a.209.209,0,0,1,.2.219.2.2,0,0,1-.214.2Z" transform="translate(-181.845 -106.144)" fill="#263238"/>
    <path id="Path_300" data-name="Path 300" d="M232.728,130.713a.214.214,0,0,1-.209-.2c0-1.044-.324-2.855-1.3-3.252a.209.209,0,1,1,.157-.386c1.446.6,1.566,3.32,1.566,3.654a.214.214,0,0,1-.2.214Z" transform="translate(-183.273 -100.987)" fill="#263238"/>
    <path id="Path_301" data-name="Path 301" d="M199.7,138.027h-.042a.209.209,0,0,1-.162-.245c.689-3.43,3.539-8.843,6.05-10.44a.2.2,0,0,1,.282.068.2.2,0,0,1-.063.282c-2.427,1.535-5.194,6.786-5.862,10.163A.209.209,0,0,1,199.7,138.027Z" transform="translate(-168.175 -101.207)" fill="#263238"/>
    <path id="Path_302" data-name="Path 302" d="M201.225,147.091c-.324.83-1.044,1.331-1.566,1.117s-.726-1.044-.4-1.895,1.044-1.331,1.566-1.112S201.554,146.261,201.225,147.091Z" transform="translate(-167.989 -108.608)" fill="#fff"/>
    <path id="Path_303" data-name="Path 303" d="M228.714,163.7c0,.386-.24.694-.5.684s-.454-.334-.438-.726.24-.7.5-.684S228.729,163.3,228.714,163.7Z" transform="translate(-181.696 -116.845)" fill="#fff"/>
    <path id="Path_304" data-name="Path 304" d="M237.338,164.055c0,.386-.235.694-.5.684s-.449-.334-.433-.726.235-.694.522-.684S237.354,163.68,237.338,164.055Z" transform="translate(-185.821 -117.011)" fill="#fff"/>
  </g>
  <g id="freepik--Chat--inject-124" transform="translate(147.724 42.392)">
    <path id="Path_305" data-name="Path 305" d="M399.888,142.4l-.522-.031a8.044,8.044,0,0,0-8.086-8.67v-.522a8.561,8.561,0,0,1,8.608,9.224Z" transform="translate(-328.019 -133.179)" fill="#00a775"/>
    <rect id="Rectangle_49" data-name="Rectangle 49" width="4.333" height="0.523" transform="translate(71.842 15.735) rotate(-85.996)" fill="#00a775"/>
    <path id="Path_306" data-name="Path 306" d="M350.865,136.68H314.846a7.924,7.924,0,0,0-7.767,7.277l-.329,4.849a6.739,6.739,0,0,0,6.786,7.277h36.018l6.984,4.307,1.107-16.433a6.734,6.734,0,0,0-6.781-7.277Z" transform="translate(-287.603 -134.852)" fill="#00a775"/>
    <rect id="Rectangle_50" data-name="Rectangle 50" width="33.361" height="1.211" transform="translate(28.073 8.775)" fill="#fff"/>
    <rect id="Rectangle_51" data-name="Rectangle 51" width="24.769" height="1.211" transform="translate(36.373 13.071)" fill="#fff"/>
    <path id="Path_307" data-name="Path 307" d="M279.168,186.38h36.811a6.885,6.885,0,0,1,6.937,7.439l-.334,4.959a8.107,8.107,0,0,1-7.94,7.439H277.826l-7.736,4.411,1.138-16.808A8.1,8.1,0,0,1,279.168,186.38Z" transform="translate(-270.09 -158.609)" fill="#fff"/>
    <path id="Path_308" data-name="Path 308" d="M279.168,186.38h36.811a6.885,6.885,0,0,1,6.937,7.439l-.334,4.959a8.107,8.107,0,0,1-7.94,7.439H277.826l-7.736,4.411,1.138-16.808A8.1,8.1,0,0,1,279.168,186.38Z" transform="translate(-270.09 -158.609)" fill="#00a775" opacity="0.15"/>
    <rect id="Rectangle_52" data-name="Rectangle 52" width="34.118" height="1.242" transform="translate(9.902 34.875)" fill="#00a775" opacity="0.5"/>
    <rect id="Rectangle_53" data-name="Rectangle 53" width="13.483" height="1.242" transform="translate(9.605 39.265)" fill="#00a775" opacity="0.5"/>
    <rect id="Rectangle_54" data-name="Rectangle 54" width="8.613" height="1.242" transform="translate(26.392 39.265)" fill="#00a775" opacity="0.5"/>
  </g>
</svg>
