<svg xmlns="http://www.w3.org/2000/svg" width="270" height="200" viewBox="0 0 270 200">
  <g id="Medical_prescription-rafiki" data-name="Medical prescription-rafiki" transform="translate(0 -55)">
    <g id="freepik--background-complete--inject-39" transform="translate(0 55)">
      <rect id="Rectangle_55" data-name="Rectangle 55" width="17.752" height="0.134" transform="translate(225.394 186.482)" fill="#ebebeb"/>
      <rect id="Rectangle_56" data-name="Rectangle 56" width="4.658" height="0.134" transform="translate(174.189 187.94)" fill="#ebebeb"/>
      <rect id="Rectangle_57" data-name="Rectangle 57" width="10.286" height="0.134" transform="translate(214.222 181.508)" fill="#ebebeb"/>
      <rect id="Rectangle_58" data-name="Rectangle 58" width="23.15" height="0.134" transform="translate(28.119 182.408)" fill="#ebebeb"/>
      <rect id="Rectangle_59" data-name="Rectangle 59" width="3.393" height="0.134" transform="translate(56.468 182.408)" fill="#ebebeb"/>
      <rect id="Rectangle_60" data-name="Rectangle 60" width="50.212" height="0.134" transform="translate(71.115 184.67)" fill="#ebebeb"/>
      <path id="Path_336" data-name="Path 336" d="M144.761,206.581H41.271a3.061,3.061,0,0,1-3.061-3.061V58.034A3.061,3.061,0,0,1,41.271,55H144.761a3.061,3.061,0,0,1,3.061,3.061V203.52A3.061,3.061,0,0,1,144.761,206.581ZM41.271,55.107a2.932,2.932,0,0,0-2.927,2.927V203.52a2.932,2.932,0,0,0,2.927,2.927H144.761a2.932,2.932,0,0,0,2.927-2.927V58.034a2.932,2.932,0,0,0-2.927-2.927Z" transform="translate(-17.729 -55)" fill="#ebebeb"/>
      <path id="Path_337" data-name="Path 337" d="M361.062,206.581h-103.5a3.066,3.066,0,0,1-3.061-3.061V58.034A3.066,3.066,0,0,1,257.561,55h103.5a3.061,3.061,0,0,1,3.05,3.034V203.52A3.061,3.061,0,0,1,361.062,206.581ZM257.561,55.107a2.932,2.932,0,0,0-2.927,2.927V203.52a2.932,2.932,0,0,0,2.927,2.927h103.5a2.932,2.932,0,0,0,2.927-2.927V58.034a2.932,2.932,0,0,0-2.927-2.927Z" transform="translate(-116.088 -55)" fill="#ebebeb"/>
      <rect id="Rectangle_61" data-name="Rectangle 61" width="270" height="0.134" transform="translate(0 177.858)" fill="#ebebeb"/>
      <path id="Path_338" data-name="Path 338" d="M232.177,235.246h-1.608V216a8.04,8.04,0,0,0-7.5-8.126,7.906,7.906,0,0,0-8.292,7.5.4.4,0,0,1-.391.381h-.825a.4.4,0,0,1-.4-.4,9.535,9.535,0,0,1,9.348-9.112,9.7,9.7,0,0,1,9.648,9.766Z" transform="translate(-97.988 -123.952)" fill="#f0f0f0"/>
      <rect id="Rectangle_62" data-name="Rectangle 62" width="11.428" height="63.296" transform="translate(227.854 114.54)" fill="#e6e6e6"/>
      <rect id="Rectangle_63" data-name="Rectangle 63" width="123.816" height="63.296" transform="translate(107.158 114.54)" fill="#f5f5f5"/>
      <path id="Path_339" data-name="Path 339" d="M320.006,288.86H196.19v1.072h30.418v49.044h1.072V289.932h29.587v49.044h1.072V289.932h29.593v49.044H289V289.932h31Z" transform="translate(-89.032 -161.14)" fill="#e0e0e0"/>
      <path id="Path_340" data-name="Path 340" d="M246.262,335.328h0a1.072,1.072,0,0,1-1.072-1.072v-4.824a1.072,1.072,0,0,1,1.072-1.072h0a1.072,1.072,0,0,1,1.072,1.072v4.824A1.072,1.072,0,0,1,246.262,335.328Z" transform="translate(-112.779 -179.895)" fill="#e6e6e6"/>
      <path id="Path_341" data-name="Path 341" d="M259.762,335.328h0a1.072,1.072,0,0,1-1.072-1.072v-4.824a1.072,1.072,0,0,1,1.072-1.072h0a1.072,1.072,0,0,1,1.072,1.072v4.824A1.072,1.072,0,0,1,259.762,335.328Z" transform="translate(-118.989 -179.895)" fill="#e6e6e6"/>
      <path id="Path_342" data-name="Path 342" d="M360.672,335.328h0a1.072,1.072,0,0,1-1.072-1.072v-4.824a1.072,1.072,0,0,1,1.072-1.072h0a1.072,1.072,0,0,1,1.072,1.072v4.824A1.072,1.072,0,0,1,360.672,335.328Z" transform="translate(-165.404 -179.895)" fill="#e6e6e6"/>
      <path id="Path_343" data-name="Path 343" d="M374.172,335.328h0a1.072,1.072,0,0,1-1.072-1.072v-4.824a1.072,1.072,0,0,1,1.072-1.072h0a1.072,1.072,0,0,1,1.072,1.072v4.824A1.072,1.072,0,0,1,374.172,335.328Z" transform="translate(-171.614 -179.895)" fill="#e6e6e6"/>
      <rect id="Rectangle_64" data-name="Rectangle 64" width="14.204" height="2.771" transform="translate(227.758 112.217)" fill="#e0e0e0"/>
      <rect id="Rectangle_65" data-name="Rectangle 65" width="127.568" height="2.771" transform="translate(104.478 112.217)" fill="#ebebeb"/>
      <path id="Path_344" data-name="Path 344" d="M238.724,260.488H196.439a1.029,1.029,0,0,1-1.029-1.029h0a1.029,1.029,0,0,1,1.029-1.029h42.285a1.029,1.029,0,0,1,1.029,1.029h0a1.029,1.029,0,0,1-1.029,1.029Z" transform="translate(-89.734 -147.983)" fill="#e6e6e6"/>
      <rect id="Rectangle_66" data-name="Rectangle 66" width="1.603" height="2.037" transform="translate(136.729 108.693)" fill="#e0e0e0"/>
      <path id="Path_345" data-name="Path 345" d="M254.88,253.064H251.9l.579-3.564H254.3Z" transform="translate(-115.863 -143.891)" fill="#f0f0f0"/>
      <rect id="Rectangle_67" data-name="Rectangle 67" width="1.603" height="2.037" transform="translate(128.558 108.693)" fill="#e0e0e0"/>
      <path id="Path_346" data-name="Path 346" d="M239.756,253.064H236.77l.584-3.564h1.817Z" transform="translate(-108.904 -143.891)" fill="#f0f0f0"/>
      <rect id="Rectangle_68" data-name="Rectangle 68" width="0.965" height="75.238" transform="translate(163.446 9.332)" fill="#e0e0e0"/>
      <rect id="Rectangle_69" data-name="Rectangle 69" width="0.965" height="75.238" transform="translate(224.29 9.332)" fill="#e0e0e0"/>
      <path id="Path_347" data-name="Path 347" d="M362.948,78.317H294.367L292.92,74.94H364.4Z" transform="translate(-133.915 -64.252)" fill="#ebebeb"/>
      <path id="Path_348" data-name="Path 348" d="M362.948,86.967H294.367L292.92,83.59H364.4Z" transform="translate(-133.915 -68.266)" fill="#ebebeb"/>
      <path id="Path_349" data-name="Path 349" d="M362.948,95.617H294.367L292.92,92.24H364.4Z" transform="translate(-133.915 -72.279)" fill="#ebebeb"/>
      <path id="Path_350" data-name="Path 350" d="M362.948,104.267H294.367l-1.447-3.377H364.4Z" transform="translate(-133.915 -76.293)" fill="#ebebeb"/>
      <path id="Path_351" data-name="Path 351" d="M362.948,112.917H294.367l-1.447-3.377H364.4Z" transform="translate(-133.915 -80.307)" fill="#ebebeb"/>
      <path id="Path_352" data-name="Path 352" d="M362.948,121.567H294.367l-1.447-3.377H364.4Z" transform="translate(-133.915 -83.88)" fill="#ebebeb"/>
      <path id="Path_353" data-name="Path 353" d="M362.948,130.217H294.367l-1.447-3.377H364.4Z" transform="translate(-133.915 -87.833)" fill="#ebebeb"/>
      <path id="Path_354" data-name="Path 354" d="M362.948,138.861H294.367l-1.447-3.371H364.4Z" transform="translate(-133.915 -91.786)" fill="#ebebeb"/>
      <path id="Path_355" data-name="Path 355" d="M362.948,147.512H294.367l-1.447-3.382H364.4Z" transform="translate(-133.915 -95.735)" fill="#ebebeb"/>
      <path id="Path_356" data-name="Path 356" d="M362.948,156.157H294.367l-1.447-3.377H364.4Z" transform="translate(-133.915 -99.688)" fill="#ebebeb"/>
      <path id="Path_357" data-name="Path 357" d="M362.948,164.807H294.367l-1.447-3.377H364.4Z" transform="translate(-133.915 -103.642)" fill="#ebebeb"/>
      <path id="Path_358" data-name="Path 358" d="M362.948,173.457H294.367l-1.447-3.377H364.4Z" transform="translate(-133.915 -107.595)" fill="#ebebeb"/>
      <path id="Path_359" data-name="Path 359" d="M362.948,182.107H294.367l-1.447-3.377H364.4Z" transform="translate(-133.915 -111.548)" fill="#ebebeb"/>
      <path id="Path_360" data-name="Path 360" d="M362.948,190.757H294.367l-1.447-3.377H364.4Z" transform="translate(-133.915 -115.501)" fill="#ebebeb"/>
      <path id="Path_361" data-name="Path 361" d="M362.948,199.407H294.367l-1.447-3.377H364.4Z" transform="translate(-133.915 -119.455)" fill="#ebebeb"/>
      <path id="Path_362" data-name="Path 362" d="M362.948,208.057H294.367l-1.447-3.377H364.4Z" transform="translate(-133.915 -123.408)" fill="#ebebeb"/>
      <rect id="Rectangle_70" data-name="Rectangle 70" width="71.476" height="1.93" transform="translate(159.005 84.684)" fill="#e0e0e0"/>
      <rect id="Rectangle_71" data-name="Rectangle 71" width="76.46" height="4.502" transform="translate(156.513 6.459)" fill="#e0e0e0"/>
      <path id="Path_363" data-name="Path 363" d="M289.067,127.528h0a.777.777,0,0,1-.777-.777V100.487a.777.777,0,0,1,.777-.777h0a.777.777,0,0,1,.777.777v26.264a.777.777,0,0,1-.777.777Z" transform="translate(-132.607 -75.745)" fill="#e0e0e0"/>
      <rect id="Rectangle_72" data-name="Rectangle 72" width="0.563" height="15.598" transform="translate(156.176 10.061)" fill="#e0e0e0"/>
      <rect id="Rectangle_73" data-name="Rectangle 73" width="22.646" height="3.484" transform="translate(88.582 142.812) rotate(180)" fill="#e0e0e0"/>
      <path id="Path_364" data-name="Path 364" d="M.021,0H24.677V34.159a1.753,1.753,0,0,1-1.753,1.753H1.753A1.753,1.753,0,0,1,0,34.159V0Z" transform="translate(89.942 177.831) rotate(180)" fill="#f0f0f0"/>
      <rect id="Rectangle_74" data-name="Rectangle 74" width="24.656" height="5.36" rx="2.68" transform="translate(89.921 140.362) rotate(180)" fill="#f0f0f0"/>
      <path id="Path_365" data-name="Path 365" d="M153.27,380.04h11.524v-1.608L153.27,377.36Z" transform="translate(-70.477 -202.204)" fill="#e0e0e0"/>
      <path id="Path_366" data-name="Path 366" d="M396.278,222.12H386.3a3.7,3.7,0,0,0-3.693,3.693v1.233H384.6v-1.238a1.7,1.7,0,0,1,1.7-1.71h9.975a1.71,1.71,0,0,1,1.7,1.71v1.233h1.989v-1.233a3.693,3.693,0,0,0-3.693-3.688Z" transform="translate(-175.895 -131.369)" fill="#e0e0e0"/>
      <path id="Path_367" data-name="Path 367" d="M404.51,234.02V245.2a2.68,2.68,0,0,1-2.68,2.68H377.56a2.68,2.68,0,0,1-2.68-2.68V234.02a2.68,2.68,0,0,1,2.68-2.68h24.249a2.68,2.68,0,0,1,2.7,2.68Z" transform="translate(-171.944 -135.497)" fill="#e6e6e6"/>
      <path id="Path_368" data-name="Path 368" d="M397.46,234.02V245.2a2.68,2.68,0,0,1-2.68,2.68H370.51a2.68,2.68,0,0,1-2.68-2.68V234.02a2.68,2.68,0,0,1,2.68-2.68h24.249a2.68,2.68,0,0,1,2.7,2.68Z" transform="translate(-169.019 -135.497)" fill="#f5f5f5"/>
      <rect id="Rectangle_75" data-name="Rectangle 75" width="12.655" height="12.655" transform="translate(207.339 97.742)" fill="#fff"/>
      <rect id="Rectangle_76" data-name="Rectangle 76" width="2.139" height="7.359" transform="translate(212.584 100.587)" fill="#e0e0e0"/>
      <rect id="Rectangle_77" data-name="Rectangle 77" width="2.139" height="7.359" transform="translate(209.985 105.327) rotate(-90)" fill="#e0e0e0"/>
    </g>
    <g id="freepik--Shadow--inject-39" transform="translate(27.491 242.865)">
      <ellipse id="freepik--path--inject-39" cx="104.925" cy="6.068" rx="104.925" ry="6.068" fill="#f5f5f5"/>
    </g>
    <g id="freepik--Character--inject-39" transform="translate(95.94 122.223)">
      <path id="Path_369" data-name="Path 369" d="M332.715,237.109c.354-.043,10.6.97,11.256,11.953l-1.753,7.611h0a35.515,35.515,0,0,0-25.615.343l-.123.054.713-8.694S319.819,238.62,332.715,237.109Z" transform="translate(-241.635 -204.349)" fill="#263238"/>
      <path id="Path_370" data-name="Path 370" d="M306.62,289.611l2.058.177a353.978,353.978,0,0,1,4.422-38.994,16.037,16.037,0,0,1,6.807-10.323,10.586,10.586,0,0,1,2.412-1.3A13.3,13.3,0,0,1,327.3,238.1h0a15.031,15.031,0,0,1,2.078.145,10.774,10.774,0,0,1,4.348,1.689,20.979,20.979,0,0,1,1.758,1.506,9.485,9.485,0,0,1,.82.97,11.358,11.358,0,0,1,1.758,9.01,323.087,323.087,0,0,0-4.561,35.676l2.058.139a321.045,321.045,0,0,1,4.5-35.4,13.4,13.4,0,0,0-2.106-10.65,12.457,12.457,0,0,0-9.219-5.21c-8.04-.536-16.407,6-17.645,14.381a357.385,357.385,0,0,0-4.465,39.257Z" transform="translate(-237.06 -203.809)" fill="#263238"/>
      <path id="Path_371" data-name="Path 371" d="M306.62,289.611l2.058.177a353.978,353.978,0,0,1,4.422-38.994,16.037,16.037,0,0,1,6.807-10.323,10.586,10.586,0,0,1,2.412-1.3A13.3,13.3,0,0,1,327.3,238.1h0a15.031,15.031,0,0,1,2.078.145,10.774,10.774,0,0,1,4.348,1.689,20.979,20.979,0,0,1,1.758,1.506,9.485,9.485,0,0,1,.82.97,11.358,11.358,0,0,1,1.758,9.01,323.087,323.087,0,0,0-4.561,35.676l2.058.139a321.045,321.045,0,0,1,4.5-35.4,13.4,13.4,0,0,0-2.106-10.65,12.457,12.457,0,0,0-9.219-5.21c-8.04-.536-16.407,6-17.645,14.381a357.385,357.385,0,0,0-4.465,39.257Z" transform="translate(-237.06 -203.809)" fill="#fff" opacity="0.3"/>
      <path id="Path_372" data-name="Path 372" d="M0,0H47.35V1.1a3.929,3.929,0,0,1-3.929,3.929H3.934A3.929,3.929,0,0,1,.005,1.1V0Z" transform="translate(98.536 84.559) rotate(180)" fill="#263238"/>
      <path id="Path_373" data-name="Path 373" d="M355.31,375.118h2.514l-2.058-41.358H352.56Z" transform="translate(-258.376 -249.196)" fill="#263238"/>
      <path id="Path_374" data-name="Path 374" d="M355.31,375.118h2.514l-2.058-41.358H352.56Z" transform="translate(-258.376 -249.196)" fill="#fff" opacity="0.3"/>
      <path id="Path_375" data-name="Path 375" d="M324.538,375.118h2.514L325.68,333.76h-3.2Z" transform="translate(-244.419 -249.196)" fill="#263238"/>
      <path id="Path_376" data-name="Path 376" d="M324.538,375.118h2.514L325.68,333.76h-3.2Z" transform="translate(-244.419 -249.196)" fill="#fff" opacity="0.3"/>
      <path id="Path_377" data-name="Path 377" d="M302,375.118h2.514l2.058-41.358h-3.2Z" transform="translate(-234.916 -249.196)" fill="#263238"/>
      <path id="Path_378" data-name="Path 378" d="M302,375.118h2.514l2.058-41.358h-3.2Z" transform="translate(-234.916 -249.196)" fill="#fff" opacity="0.3"/>
      <path id="Path_379" data-name="Path 379" d="M270.63,375.118h2.519l2.744-41.358h-3.205Z" transform="translate(-220.361 -249.196)" fill="#263238"/>
      <path id="Path_380" data-name="Path 380" d="M270.63,375.118h2.519l2.744-41.358h-3.205Z" transform="translate(-220.361 -249.196)" fill="#fff" opacity="0.3"/>
      <rect id="Rectangle_78" data-name="Rectangle 78" width="28.135" height="3.661" transform="translate(77.257 86.392) rotate(180)" fill="#263238"/>
      <rect id="Rectangle_79" data-name="Rectangle 79" width="28.135" height="3.661" transform="translate(77.257 86.392) rotate(180)" fill="#fff" opacity="0.7"/>
      <rect id="Rectangle_80" data-name="Rectangle 80" width="23.343" height="3.661" transform="translate(100.6 86.392) rotate(180)" fill="#263238"/>
      <rect id="Rectangle_81" data-name="Rectangle 81" width="23.343" height="3.661" transform="translate(100.6 86.392) rotate(180)" fill="#fff" opacity="0.4"/>
      <path id="Path_381" data-name="Path 381" d="M277.114,223.543c-5.113,1.008-15.244,5.36-15.308,5.124,0,0-8.528-2.021-12.033-5.9,0,0-3.35-.413-5.1-.761,1.27,3,3.752,6.63,6.507,8.362a35.26,35.26,0,0,0,7.917,4.181c4.331,1.651,10.961-.1,15.255-1.86a8.485,8.485,0,0,0,4.133-2.91C279.4,228.346,278.534,224.5,277.114,223.543Z" transform="translate(-208.315 -197.344)" fill="#407bff"/>
      <path id="Path_382" data-name="Path 382" d="M277.114,223.543c-5.113,1.008-15.244,5.36-15.308,5.124,0,0-8.528-2.021-12.033-5.9,0,0-3.35-.413-5.1-.761,1.27,3,3.752,6.63,6.507,8.362a35.26,35.26,0,0,0,7.917,4.181c4.331,1.651,10.961-.1,15.255-1.86a8.485,8.485,0,0,0,4.133-2.91C279.4,228.346,278.534,224.5,277.114,223.543Z" transform="translate(-208.315 -197.344)" fill="#fff" opacity="0.7"/>
      <path id="Path_383" data-name="Path 383" d="M268.387,207.65H255.646c-1.78-6.432,1.785-12.9,0-19.35h12.741C270.171,194.748,266.6,201.2,268.387,207.65Z" transform="translate(-213.17 -181.702)" fill="#00a775"/>
      <path id="Path_385" data-name="Path 385" d="M252.935,215.11l-2.042.981a3.355,3.355,0,0,1-1.233,1.656,8.688,8.688,0,0,1-1.812.766,2.455,2.455,0,0,1-2.573-.713.975.975,0,0,1-.2-1.072l1.956-3.656a1.506,1.506,0,0,1,1.1-.777l3.216-.509a1.115,1.115,0,0,1,1.072.423l.943,1.238a1.11,1.11,0,0,1-.423,1.662Z" transform="translate(-208.465 -192.593)" fill="#ce7a63"/>
      <path id="Path_386" data-name="Path 386" d="M319.423,281.129l3.018,11.009-16.573,3.554-10.007-5.3,2.8-9.471Z" transform="translate(-232.067 -224.678)" fill="#00a775"/>
      <path id="Path_387" data-name="Path 387" d="M319.423,281.129l3.018,11.009-16.573,3.554-10.007-5.3,2.8-9.471Z" transform="translate(-232.067 -224.678)" opacity="0.1"/>
      <g id="freepik--freepik--Character--inject-5--inject-39" transform="translate(59.639 0)">
        <path id="Path_388" data-name="Path 388" d="M297.866,230.191a41.688,41.688,0,0,0-.038,8.49c.155,3.795.981,7.783,2.015,13.936,2.074,1.217,12.585.713,19.3-.155-.407-5.36.263-11.535,3.907-23.643a4.475,4.475,0,0,0-4.052-5.789c-.8-.08-1.662-.145-2.535-.182a69.629,69.629,0,0,0-9.219,0c-.981.091-2.042.209-3.034.332C300.632,223.636,298.525,226.391,297.866,230.191Z" transform="translate(-292.527 -197.662)" fill="#00a775"/>
        <path id="Path_389" data-name="Path 389" d="M300.747,279.07a91.368,91.368,0,0,0,20.395-.043.488.488,0,0,0,.37-.584v-.064c-.166-.391-.338-.783-.493-1.174a.429.429,0,0,0-.44-.268,90.147,90.147,0,0,1-19.607,0,.434.434,0,0,0-.488.375.07.07,0,0,1,0,.032c-.043.407-.08.809-.118,1.217a.456.456,0,0,0,.4.509Z" transform="translate(-293.796 -222.828)" fill="#407bff"/>
        <path id="Path_390" data-name="Path 390" d="M302.582,222.67c-5.012,6.432-5.36,22.33-4.1,53.557.113,2.723-2.5,2.525-5.054,2a15.921,15.921,0,0,0-5.317-.5s6.073-15.946,5.087-30.246-.3-19.355,2.021-21.976S302.582,222.67,302.582,222.67Z" transform="translate(-288.11 -197.65)" fill="#407bff"/>
        <path id="Path_391" data-name="Path 391" d="M302.582,222.67c-5.012,6.432-5.36,22.33-4.1,53.557.107,2.723-2.369,2.428-5.06,2a31.16,31.16,0,0,0-5.312-.5s6.073-15.946,5.087-30.246-.3-19.355,2.021-21.976S302.582,222.67,302.582,222.67Z" transform="translate(-288.11 -197.65)" fill="#fff" opacity="0.7"/>
        <path id="Path_392" data-name="Path 392" d="M323.694,203.6c-.8,2.953-1.785,8.4.145,10.388A30.219,30.219,0,0,1,315.895,218c-1.608-.413-1.27-4.009-1.27-4.009,3.371-.793,3.468-3.216,3.061-5.548Z" transform="translate(-300.399 -188.802)" fill="#ce7a63"/>
        <path id="Path_393" data-name="Path 393" d="M323.914,207.28l-3.564,2.862a9.284,9.284,0,0,1,.161,1.608c1.281-.182,3.12-1.565,3.355-2.894a4.6,4.6,0,0,0,.048-1.576Z" transform="translate(-303.069 -190.509)" opacity="0.2"/>
        <path id="Path_394" data-name="Path 394" d="M314.706,181.361a22.593,22.593,0,0,0-4.218,16.52c-1.694-3.216-3.216-1.463-3.339-5.087-.054-1.822.9-9.214,1.7-10.849a4.852,4.852,0,0,1,4.288-2.878,2.562,2.562,0,0,1,1.763.718C315.349,180.263,315.108,180.842,314.706,181.361Z" transform="translate(-296.943 -177.417)" fill="#263238"/>
        <path id="Path_395" data-name="Path 395" d="M323.889,185.911c-.9,4.792-1.179,6.839-3.929,9.112-4.116,3.441-9.766,1.608-10.323-3.254-.488-4.4,1.072-11.5,6.009-13.078a6.244,6.244,0,0,1,8.244,7.2Z" transform="translate(-298.059 -177.068)" fill="#ce7a63"/>
        <path id="Path_396" data-name="Path 396" d="M319.946,193.829c-.113.391-.418.665-.665.611s-.37-.418-.257-.809.418-.67.67-.616S320.064,193.432,319.946,193.829Z" transform="translate(-302.434 -183.887)" fill="#263238"/>
        <path id="Path_397" data-name="Path 397" d="M312.347,192c-.113.391-.413.665-.665.611s-.37-.423-.252-.809.413-.67.665-.611S312.465,191.622,312.347,192Z" transform="translate(-298.909 -183.041)" fill="#263238"/>
        <path id="Path_398" data-name="Path 398" d="M312.168,190.867l-.858-.477S311.578,191.253,312.168,190.867Z" transform="translate(-298.875 -182.672)" fill="#263238"/>
        <path id="Path_399" data-name="Path 399" d="M313.477,194.46a12.119,12.119,0,0,1-2.117,2.2,1.608,1.608,0,0,0,1.308.568Z" transform="translate(-298.898 -184.561)" fill="#ba4d3c"/>
        <path id="Path_400" data-name="Path 400" d="M316.527,202.367a3.488,3.488,0,0,1-.665-.1.107.107,0,0,1-.086-.134h0a.129.129,0,0,1,.15-.086,3.409,3.409,0,0,0,2.868-.67.118.118,0,0,1,.166,0h0a.123.123,0,0,1,0,.166h0A3.586,3.586,0,0,1,316.527,202.367Z" transform="translate(-300.946 -187.756)" fill="#263238"/>
        <path id="Path_401" data-name="Path 401" d="M314.5,178.258c1.5-2.064,5.58-2.626,7.97-2.058,8.469,2.021,4.583,9.058,9.487,13.014-1.426,2.557-2.8,2.015-4.46,3.168-.97.675-3.543,2.782-4.706,2.68.059-2.4,1.109-5.151.622-7.5a13.571,13.571,0,0,0-3-6.346C318.858,179.5,316.751,178.14,314.5,178.258Z" transform="translate(-300.355 -175.991)" fill="#263238"/>
        <path id="Path_402" data-name="Path 402" d="M314.5,178.258c1.5-2.064,5.58-2.626,7.97-2.058,8.469,2.021,4.583,9.058,9.487,13.014-1.426,2.557-2.8,2.015-4.46,3.168-.97.675-3.543,2.782-4.706,2.68.059-2.4,1.109-5.151.622-7.5a13.571,13.571,0,0,0-3-6.346C318.858,179.5,316.751,178.14,314.5,178.258Z" transform="translate(-300.355 -175.991)" opacity="0.2"/>
        <path id="Path_403" data-name="Path 403" d="M314.5,178.258c1.5-2.064,5.58-2.626,7.97-2.058,8.469,2.021,4.583,9.058,9.487,13.014-1.426,2.557-2.8,2.015-4.46,3.168-.97.675-3.543,2.782-4.706,2.68.059-2.4,1.109-5.151.622-7.5a13.571,13.571,0,0,0-3-6.346C318.858,179.5,316.751,178.14,314.5,178.258Z" transform="translate(-300.355 -175.991)" fill="#263238"/>
        <path id="Path_404" data-name="Path 404" d="M314.5,178.258c1.5-2.064,5.58-2.626,7.97-2.058,8.469,2.021,4.583,9.058,9.487,13.014-1.426,2.557-2.8,2.015-4.46,3.168-.97.675-3.543,2.782-4.706,2.68.059-2.4,1.109-5.151.622-7.5a13.571,13.571,0,0,0-3-6.346C318.858,179.5,316.751,178.14,314.5,178.258Z" transform="translate(-300.355 -175.991)" opacity="0.1"/>
        <path id="Path_405" data-name="Path 405" d="M332.8,198.908a3.329,3.329,0,0,1-2.24,1.522c-1.142.161-1.474-1.168-.943-2.391.493-1.072,1.635-2.508,2.68-2.1S333.46,197.863,332.8,198.908Z" transform="translate(-307.255 -185.214)" fill="#ce7a63"/>
        <path id="Path_406" data-name="Path 406" d="M322.852,190.15a.188.188,0,0,1-.123-.123,1.758,1.758,0,0,0-1.238-1.11.214.214,0,0,1-.182-.241.049.049,0,0,1,0-.027.252.252,0,0,1,.289-.193,2.171,2.171,0,0,1,1.576,1.388.245.245,0,0,1-.322.306Z" transform="translate(-303.513 -181.773)" fill="#263238"/>
        <path id="Path_407" data-name="Path 407" d="M311.314,187.467a.22.22,0,0,1-.118-.4,2.508,2.508,0,0,1,2.144-.611.231.231,0,0,1,.161.273h0a.263.263,0,0,1-.306.166,2,2,0,0,0-1.683.5.257.257,0,0,1-.2.075Z" transform="translate(-298.777 -180.826)" fill="#263238"/>
        <path id="Path_408" data-name="Path 408" d="M319.768,192.7l-.858-.477S319.178,193.062,319.768,192.7Z" transform="translate(-302.401 -183.521)" fill="#263238"/>
      </g>
      <path id="Path_409" data-name="Path 409" d="M315,179.421a4.519,4.519,0,0,0-.858,1.351,1.817,1.817,0,0,0,.086,1.549,2.267,2.267,0,0,0,1.1.847,6.432,6.432,0,0,0,1.367.423,1.662,1.662,0,0,1-.536-1.731,2.144,2.144,0,0,0,1.008,1.474c.482.284,1.024.439,1.522.691,1.57.788,4.5,4.915,2.332,13.5,1.914-.708,4.6-7.445,4.154-9.439s-.536-7.118-5.633-8.908A8.09,8.09,0,0,0,315,179.421Z" transform="translate(-240.489 -177.358)" fill="#263238"/>
      <path id="Path_410" data-name="Path 410" d="M263.322,390.993l-4.6.445-2.728-12.971,5.43-.627Z" transform="translate(-213.568 -269.649)" fill="#ce7a63"/>
      <path id="Path_411" data-name="Path 411" d="M250.259,400.279a2.45,2.45,0,0,1,1.608-.729l4.937-.343a.434.434,0,0,1,.482.359l.954,4.583a.976.976,0,0,1-.74,1.158h-.021c-1.865.482-3.039.091-5.9.289-1.758.123-5.494.82-7.89.423s-2.09-2.771-1.072-2.819A12.481,12.481,0,0,0,250.259,400.279Z" transform="translate(-207.012 -279.562)" fill="#263238"/>
      <g id="Group_11" data-name="Group 11" transform="translate(42.422 108.196)" opacity="0.2">
        <path id="Path_412" data-name="Path 412" d="M255.99,378.477l1.587,7.542L262.46,385l-1.034-7.15Z" transform="translate(-255.99 -377.85)"/>
      </g>
      <path id="Path_413" data-name="Path 413" d="M276.958,311.069H276.4a7.892,7.892,0,0,1-.938-.07L250.8,309.681c3.982,3.65,4.636,32.9,4.636,32.9l-1.179.252-5.36,1.142h0l-.981.209s-2.235-9.578-4.824-20.566c-1.308-5.564-3-11.315-3.752-16.836a38.067,38.067,0,0,1-.354-4.427c0-.456,0-.906,0-1.356a1.22,1.22,0,0,1,0-.139,2.133,2.133,0,0,1,.043-.536A4.824,4.824,0,0,1,240.1,297.9l.182-.209a2.237,2.237,0,0,1,.193-.2,5.505,5.505,0,0,1,.407-.381c.15-.123.3-.247.461-.364l.413-.284c.172-.107.343-.209.536-.311a2.733,2.733,0,0,1,.279-.145c.279-.15.568-.289.874-.418l.263-.113.359-.134c.107-.048.214-.086.322-.123.327-.118.665-.23,1.013-.322l.177-.054h.048c9.353-2.648,25.262-.606,25.262-.606a21.832,21.832,0,0,1,8.667-3.7l.632.07,1.989.22a.479.479,0,0,1,.086,0C288.842,302.284,284.763,310.983,276.958,311.069Z" transform="translate(-205.678 -229.142)" fill="#00a775"/>
      <g id="Group_12" data-name="Group 12" transform="translate(33.308 61.398)" opacity="0.1">
        <path id="Path_414" data-name="Path 414" d="M276.958,311.069H276.4a7.892,7.892,0,0,1-.938-.07L250.8,309.681c3.982,3.65,4.636,32.9,4.636,32.9l-1.179.252-5.36,1.142h0l-.981.209s-2.235-9.578-4.824-20.566c-1.308-5.564-3-11.315-3.752-16.836a38.067,38.067,0,0,1-.354-4.427c0-.456,0-.906,0-1.356a1.22,1.22,0,0,1,0-.139,2.133,2.133,0,0,1,.043-.536A4.824,4.824,0,0,1,240.1,297.9l.182-.209a2.237,2.237,0,0,1,.193-.2,5.505,5.505,0,0,1,.407-.381c.15-.123.3-.247.461-.364l.413-.284c.172-.107.343-.209.536-.311a2.733,2.733,0,0,1,.279-.145c.279-.15.568-.289.874-.418l.263-.113.359-.134c.107-.048.214-.086.322-.123.327-.118.665-.23,1.013-.322l.177-.054h.048c9.353-2.648,25.262-.606,25.262-.606a21.832,21.832,0,0,1,8.667-3.7l.632.07,1.989.22a.479.479,0,0,1,.086,0C288.842,302.284,284.763,310.983,276.958,311.069Z" transform="translate(-238.986 -290.54)"/>
      </g>
      <path id="Path_415" data-name="Path 415" d="M204.861,356l-1.319,2.021-2.937,4.5-4.915.515,3.725-7.826,2.53-5.328Z" transform="translate(-185.589 -256.675)" fill="#ce7a63"/>
      <path id="Path_416" data-name="Path 416" d="M188.184,366.807l4.068,2.541a.429.429,0,0,1,.188.536l-1.994,4.652a.949.949,0,0,1-1.276.418h-.027c-1.9-1.152-2.75-1.8-5.156-3.216L178,368.265c-2.048-1.2-.943-3.27.027-2.953,4.288,1.426,7.2,1.608,9.112,1.308A1.538,1.538,0,0,1,188.184,366.807Z" transform="translate(-176.844 -263.821)" fill="#263238"/>
      <g id="Group_13" data-name="Group 13" transform="translate(13.827 93.205)" opacity="0.2">
        <path id="Path_417" data-name="Path 417" d="M208.086,356l-1.313,2.021h-.005l-4.127-2.809,2.53-5.328Z" transform="translate(-202.64 -349.88)"/>
      </g>
      <path id="Path_418" data-name="Path 418" d="M261.574,304.842a11.462,11.462,0,0,1-1.608-.311c-.182-.043-.37-.1-.563-.155-4.524-1.3-11.036-4.867-17.1-8.378-5.585-3.216-10.768-6.432-13.641-7.74h-.048l-.177.054c-.348.1-.686.209-1.013.327a2.59,2.59,0,0,0-.322.118l-.359.134-.263.113c-.306.129-.595.273-.874.418-.1.043-.188.1-.279.145-.182.1-.354.2-.536.311l-.413.289c-.161.118-.311.236-.461.359a5.521,5.521,0,0,0-.407.381c-.07.064-.134.134-.193.2l-.182.209a4.824,4.824,0,0,0-1.072,2.423c0,.182-.038.37-.043.536v1.356a38.536,38.536,0,0,0,.338,4.454v.113c-6.732,12.14-13.732,23.15-13.732,23.15l-1.19-.82-4.288-2.937-.74-.536s7.472-17.506,12.612-33.1a14.231,14.231,0,0,1,13.636-9.8c12.687.113,29.346,7.123,29.346,7.123l4.572.488.632.07,1.989.22a.485.485,0,0,1,.086,0c1.072.118,2.273.2,3.436.289a6.218,6.218,0,0,1,5.553,4.572C277.68,301.336,269.571,305.823,261.574,304.842Z" transform="translate(-188.707 -222.464)" fill="#407bff"/>
      <path id="Path_419" data-name="Path 419" d="M261.574,304.842a11.462,11.462,0,0,1-1.608-.311c-.182-.043-.37-.1-.563-.155-4.524-1.3-11.036-4.867-17.1-8.378-5.585-3.216-10.768-6.432-13.641-7.74h-.048l-.177.054c-.348.1-.686.209-1.013.327a2.59,2.59,0,0,0-.322.118l-.359.134-.263.113c-.306.129-.595.273-.874.418-.1.043-.188.1-.279.145-.182.1-.354.2-.536.311l-.413.289c-.161.118-.311.236-.461.359a5.521,5.521,0,0,0-.407.381c-.07.064-.134.134-.193.2l-.182.209a4.824,4.824,0,0,0-1.072,2.423c0,.182-.038.37-.043.536v1.356a38.536,38.536,0,0,0,.338,4.454v.113c-6.732,12.14-13.732,23.15-13.732,23.15l-1.19-.82-4.288-2.937-.74-.536s7.472-17.506,12.612-33.1a14.231,14.231,0,0,1,13.636-9.8c12.687.113,29.346,7.123,29.346,7.123l4.572.488.632.07,1.989.22a.485.485,0,0,1,.086,0c1.072.118,2.273.2,3.436.289a6.218,6.218,0,0,1,5.553,4.572C277.68,301.336,269.571,305.823,261.574,304.842Z" transform="translate(-188.707 -222.464)" fill="#00a775"/>
      <path id="Path_420" data-name="Path 420" d="M251.187,298.49h0l-.177.048Z" transform="translate(-211.257 -232.831)" fill="#407bff"/>
      <path id="Path_421" data-name="Path 421" d="M327.477,222.12s-3.489,3.1-4.529,10.575c-1.662,12.055-.793,35.3-.172,48.572a2.878,2.878,0,0,0,3.891,2.551c4.143-1.544,10.913-.332,13.936-2.953.22-4-6.738-24.431-6.062-35.006s1.994-19.789.627-21.783S327.477,222.12,327.477,222.12Z" transform="translate(-244.191 -197.395)" fill="#407bff"/>
      <path id="Path_422" data-name="Path 422" d="M327.508,222.12s-3.489,3.1-4.529,10.575c-1.662,12.055-.7,35.3-.075,48.572a2.873,2.873,0,0,0,3.886,2.551c4.143-1.544,10.822-.332,13.861-2.953.22-4-6.738-24.431-6.062-35.006s1.994-19.789.627-21.783S327.508,222.12,327.508,222.12Z" transform="translate(-244.221 -197.395)" fill="#fff" opacity="0.7"/>
      <path id="Path_423" data-name="Path 423" d="M326.888,239.375a.179.179,0,0,1-.07-.338l.745-.364a3.8,3.8,0,0,0,2.144-3.752l-.606-7.252a2.412,2.412,0,0,0-4.636-.713l-2.766,6.721a3.811,3.811,0,0,0,.9,4.229l.606.574a.182.182,0,0,1,0,.252.177.177,0,0,1-.252,0l-.606-.574a4.159,4.159,0,0,1-.965-4.626l2.787-6.705a2.771,2.771,0,0,1,5.322.825l.6,7.241a4.154,4.154,0,0,1-2.364,4.1l-.745.359A.134.134,0,0,1,326.888,239.375Z" transform="translate(-243.756 -198.784)" fill="#263238"/>
      <path id="Path_424" data-name="Path 424" d="M331.554,230.433a.182.182,0,0,1-.172-.161,2.868,2.868,0,0,0-5.3-.825.182.182,0,1,1-.338-.123h0a3.216,3.216,0,0,1,5.976.927.177.177,0,0,1-.155.193Z" transform="translate(-245.925 -199.962)" fill="#263238"/>
      <path id="Path_425" data-name="Path 425" d="M331.361,222.834h0a.172.172,0,0,1-.161-.188h0c.075-.874,0-2.471-.82-2.905a.178.178,0,1,1,.172-.311h0c1.179.643,1.008,2.98.981,3.248a.172.172,0,0,1-.172.155Z" transform="translate(-248.042 -196.137)" fill="#263238"/>
      <path id="Path_426" data-name="Path 426" d="M324.863,249.815c-.054.338-.273.579-.493.536s-.354-.327-.3-.659.268-.579.488-.536S324.911,249.488,324.863,249.815Z" transform="translate(-245.151 -209.937)" fill="#263238"/>
      <path id="Path_427" data-name="Path 427" d="M332,250.932c-.048.327-.268.568-.488.536s-.354-.332-.3-.665.268-.568.488-.536S332.051,250.594,332,250.932Z" transform="translate(-248.464 -210.454)" fill="#263238"/>
      <path id="Path_428" data-name="Path 428" d="M313.1,237.169c-.182.745-.729,1.254-1.2,1.136s-.74-.8-.536-1.57.729-1.254,1.2-1.131S313.279,236.424,313.1,237.169Z" transform="translate(-239.228 -203.642)" fill="#263238"/>
      <path id="Path_429" data-name="Path 429" d="M311.643,229.544h-.038a.177.177,0,0,1-.166-.188c.188-3,1.972-7.97,3.929-9.594a.172.172,0,0,1,.252,0,.177.177,0,0,1,0,.252.129.129,0,0,1-.043.032c-1.887,1.608-3.623,6.384-3.8,9.337a.172.172,0,0,1-.134.161Z" transform="translate(-239.296 -196.275)" fill="#263238"/>
      <path id="Path_430" data-name="Path 430" d="M314.133,237.537c-.123.638-.595,1.072-1.072,1a1.072,1.072,0,0,1-.633-1.313c.118-.643.595-1.072,1.072-1A1.072,1.072,0,0,1,314.133,237.537Z" transform="translate(-239.733 -203.935)" fill="#fff"/>
      <path id="Path_431" data-name="Path 431" d="M314.524,237.424c-.166.788-.6,1.367-.959,1.292s-.536-.783-.343-1.576.6-1.367.959-1.286S314.674,236.631,314.524,237.424Z" transform="translate(-240.086 -203.764)" fill="#263238"/>
      <path id="Path_432" data-name="Path 432" d="M289.927,254.637l-11.181.2a.874.874,0,0,1-.868-.756l-2.144-17.109a.686.686,0,0,1,.681-.783l11.2-.193a.874.874,0,0,1,.868.756l2.144,17.109a.686.686,0,0,1-.7.772Z" transform="translate(-222.726 -203.835)" fill="#263238"/>
      <path id="Path_433" data-name="Path 433" d="M286.856,236.418l-2.68.048a1.072,1.072,0,0,1-1.072-.943l-.2-1.6,4.61-.086.193,1.576a.852.852,0,0,1-.847,1Z" transform="translate(-226.054 -202.833)" fill="#263238"/>
      <path id="Path_434" data-name="Path 434" d="M286.856,236.418l-2.68.048a1.072,1.072,0,0,1-1.072-.943l-.2-1.6,4.61-.086.193,1.576a.852.852,0,0,1-.847,1Z" transform="translate(-226.054 -202.833)" fill="#fff" opacity="0.7"/>
      <path id="Path_435" data-name="Path 435" d="M298.4,236.05h-.536a.884.884,0,0,1,.868.756l2.144,17.114a.686.686,0,0,1-.681.783h.536a.681.681,0,0,0,.675-.783l-2.144-17.114A.884.884,0,0,0,298.4,236.05Z" transform="translate(-232.995 -203.858)" fill="#fff"/>
      <path id="Path_436" data-name="Path 436" d="M336.417,230.46c.166.365-3.457,14.8-3.457,14.8l2.76,1.217Z" transform="translate(-249.282 -201.265)" opacity="0.2"/>
      <path id="Path_437" data-name="Path 437" d="M328.845,237.119c-.627,5.665-1.206,7.879-1.608,8.5-2.08,7.681-8.694,3.816-9.648,3.5a48.549,48.549,0,0,1-4.931-2.391,75.536,75.536,0,0,1-8.828-4.251l1.469-3.168s11,2.391,12.446,2.68c.627.139,3.752.654,3.682-1.024.322-.568.606-10.275,1.506-14.15a3.29,3.29,0,0,1,.563-1.2l.091-.118c.6-.815,1-.809,2.1-.767,2.4.1,3.527,1.946,3.779,4.331h0C329.7,231.3,329.113,234.911,328.845,237.119Z" transform="translate(-235.766 -198.598)" fill="#407bff"/>
      <g id="Group_14" data-name="Group 14" transform="translate(68.064 26.114)" opacity="0.7">
        <path id="Path_438" data-name="Path 438" d="M328.845,237.119c-.627,5.665-1.206,7.879-1.608,8.5-2.08,7.681-8.694,3.816-9.648,3.5a48.549,48.549,0,0,1-4.931-2.391,75.536,75.536,0,0,1-8.828-4.251l1.469-3.168s11,2.391,12.446,2.68c.627.139,3.752.654,3.682-1.024.322-.568.606-10.275,1.506-14.15a3.29,3.29,0,0,1,.563-1.2l.091-.118c.6-.815,1-.809,2.1-.767,2.4.1,3.527,1.946,3.779,4.331h0C329.7,231.3,329.113,234.911,328.845,237.119Z" transform="translate(-303.83 -224.712)" fill="#fff"/>
      </g>
      <path id="Path_439" data-name="Path 439" d="M302.281,251.035h0a2.889,2.889,0,0,1-2.38,3.484,12.328,12.328,0,0,1-2.648.1l-.2-5.44,4.165.815A1.356,1.356,0,0,1,302.281,251.035Z" transform="translate(-232.62 -209.951)" fill="#ce7a63"/>
      <path id="Path_440" data-name="Path 440" d="M293.15,249.18l.22,5.456-2.021.118a2.519,2.519,0,0,1-2.61-1.935l-.027-.129a2.519,2.519,0,0,1,1.994-3.055Z" transform="translate(-228.719 -209.951)" fill="#ce7a63"/>
    </g>
    <g id="freepik--Desk--inject-39" transform="translate(-5.645 182.135)">
      <path id="Path_486" data-name="Path 486" d="M234.9,265.211l-2.257.011-.2-2.251,2.251-.011Z" transform="translate(-115.257 -272.257)" fill="#fff"/>
      <path id="Path_487" data-name="Path 487" d="M143.428,278.75v3.27h-19.21l-2.074,68.2H120.38V278.75Z" transform="translate(-63.261 -279.584)" fill="#263238"/>
      <path id="Path_488" data-name="Path 488" d="M143.428,278.75v3.27h-19.21l-2.074,68.2H120.38V278.75Z" transform="translate(-63.261 -279.584)" fill="#fff" opacity="0.7"/>
      <path id="Path_489" data-name="Path 489" d="M143.428,278.75v3.27h-19.21l-2.074,68.2H120.38V278.75Z" transform="translate(-63.261 -279.584)" fill="none" opacity="0.3"/>
      <path id="Path_490" data-name="Path 490" d="M118.473,350.215h-1.667l-.536-71.465h2.2Z" transform="translate(-61.354 -279.584)" fill="#263238"/>
      <g id="Group_16" data-name="Group 16" transform="translate(54.916 -0.834)" opacity="0.3">
        <path id="Path_491" data-name="Path 491" d="M118.473,350.215h-1.667l-.536-71.465h2.2Z" transform="translate(-116.27 -278.75)" fill="#fff"/>
      </g>
      <path id="Path_492" data-name="Path 492" d="M168.94,278.75v71.465h-1.747l-1.554-68.2H163.58v-3.27Z" transform="translate(-83.306 -279.584)" fill="#263238"/>
      <path id="Path_493" data-name="Path 493" d="M167.391,350.215h-1.667L163.58,278.75h2.2Z" transform="translate(-83.306 -279.584)" fill="#263238"/>
      <g id="Group_17" data-name="Group 17" transform="translate(80.274 -0.834)" opacity="0.3">
        <path id="Path_494" data-name="Path 494" d="M167.391,350.215h-1.667L163.58,278.75h2.2Z" transform="translate(-163.58 -278.75)" fill="#fff"/>
      </g>
      <path id="Path_495" data-name="Path 495" d="M168.94,278.75v71.465h-1.747l-1.554-68.2H163.58v-3.27Z" transform="translate(-83.306 -279.584)" fill="#fff" opacity="0.7"/>
      <path id="Path_496" data-name="Path 496" d="M365.856,350.215h-1.662L362.05,278.75h2.2Z" transform="translate(-175.396 -279.584)" fill="#263238"/>
      <path id="Path_497" data-name="Path 497" d="M362.05,278.75h2.2l1.608,71.465h-1.662" transform="translate(-175.396 -279.584)" fill="#fff" opacity="0.3"/>
      <rect id="Rectangle_82" data-name="Rectangle 82" width="104.772" height="5.419" transform="translate(57.13 -0.834)" fill="#263238"/>
      <rect id="Rectangle_83" data-name="Rectangle 83" width="104.772" height="5.419" transform="translate(57.13 -0.834)" fill="#fff" opacity="0.5"/>
      <path id="Path_498" data-name="Path 498" d="M319.05,278.75v71.465h1.758l2.074-68.2h21.274l1.554,68.2h1.747V278.75Z" transform="translate(-155.444 -279.584)" fill="#263238"/>
      <path id="Path_499" data-name="Path 499" d="M319.05,278.75v71.465h1.758l2.074-68.2h21.274l1.554,68.2h1.747V278.75Z" transform="translate(-155.444 -279.584)" fill="#fff" opacity="0.7"/>
      <path id="Path_500" data-name="Path 500" d="M317.143,350.215h-1.667l-.536-71.465h2.2Z" transform="translate(-153.537 -279.584)" fill="#263238"/>
      <path id="Path_501" data-name="Path 501" d="M317.143,350.215h-1.667l-.536-71.465h2.2Z" transform="translate(-153.537 -279.584)" fill="#fff" opacity="0.3"/>
      <rect id="Rectangle_84" data-name="Rectangle 84" width="110.228" height="4.111" transform="translate(52 -4.945)" fill="#263238"/>
      <rect id="Rectangle_85" data-name="Rectangle 85" width="110.228" height="4.111" transform="translate(52 -4.945)" fill="#fff" opacity="0.6"/>
      <rect id="Rectangle_86" data-name="Rectangle 86" width="35.258" height="4.111" transform="translate(159.672 -4.945)" fill="#263238"/>
      <rect id="Rectangle_87" data-name="Rectangle 87" width="35.258" height="4.111" transform="translate(159.672 -4.945)" fill="#fff" opacity="0.7"/>
    </g>
    <g id="freepik--Document--inject-39" transform="translate(37.647 64.348)">
      <path id="Path_502" data-name="Path 502" d="M137.191,170.185H72.838c9.01-32.589-9.01-65.162,0-97.745h64.352C128.18,105.023,146.222,137.6,137.191,170.185Z" transform="translate(-70.237 -72.44)" fill="#00a775"/>
      <path id="Path_503" data-name="Path 503" d="M137.191,170.185H72.838c9.01-32.589-9.01-65.162,0-97.745h64.352C128.18,105.023,146.222,137.6,137.191,170.185Z" transform="translate(-70.237 -72.44)" fill="#fff" opacity="0.7"/>
      <path id="Path_504" data-name="Path 504" d="M155.772,110.128H126.694a.284.284,0,1,1,0-.568h29.078a.284.284,0,1,1,0,.568Z" transform="translate(-96.301 -89.664)" fill="#263238"/>
      <path id="Path_505" data-name="Path 505" d="M156.022,120.908H126.944a.3.3,0,0,1-.295-.284.268.268,0,0,1,.268-.284H156a.306.306,0,0,1,.3.284.273.273,0,0,1-.273.284Z" transform="translate(-96.412 -94.666)" fill="#263238"/>
      <path id="Path_506" data-name="Path 506" d="M134.552,131.738H79.88a.322.322,0,0,1-.311-.284.257.257,0,0,1,.257-.284H134.5a.311.311,0,0,1,.306.284.257.257,0,0,1-.252.284Z" transform="translate(-74.566 -99.691)" fill="#263238"/>
      <path id="Path_507" data-name="Path 507" d="M143.051,224.183H88.363a.268.268,0,0,1-.273-.284.3.3,0,0,1,.3-.279h54.672a.263.263,0,0,1,.268.279A.3.3,0,0,1,143.051,224.183Z" transform="translate(-78.521 -142.587)" fill="#263238"/>
      <path id="Path_508" data-name="Path 508" d="M104.815,242.708H86.355a.231.231,0,0,1-.23-.284.354.354,0,0,1,.332-.284H104.9a.23.23,0,0,1,.23.284A.354.354,0,0,1,104.815,242.708Z" transform="translate(-77.606 -151.181)" fill="#263238"/>
      <path id="Path_509" data-name="Path 509" d="M172.769,242.708H154.325a.231.231,0,0,1-.23-.284.348.348,0,0,1,.332-.284h18.444a.23.23,0,0,1,.23.284.354.354,0,0,1-.332.284Z" transform="translate(-109.144 -151.181)" fill="#263238"/>
      <path id="Path_510" data-name="Path 510" d="M99.02,93.691c0,2.428-1.828,3.94-4.738,3.94h-2.2v3.007H89.56V89.73h4.722C97.193,89.73,99.02,91.242,99.02,93.691Zm-2.557,0c0-1.2-.783-1.9-2.321-1.9H92.085v3.784h2.058C95.692,95.572,96.464,94.876,96.464,93.691Z" transform="translate(-79.203 -80.463)" fill="#00a775"/>
      <path id="Path_511" data-name="Path 511" d="M103.41,112.268l-2.632-3.784-2.589,3.784h-2.9l4.036-5.548-3.832-5.36h2.857l2.508,3.538,2.466-3.538h2.728l-3.806,5.269,4.068,5.639Z" transform="translate(-81.862 -85.859)" fill="#00a775"/>
      <path id="Path_512" data-name="Path 512" d="M84.552,138.166c0,.6-.45.976-1.174.976h-.536v.745H82.21v-2.68h1.168C84.1,137.158,84.552,137.533,84.552,138.166Zm-.632,0c0-.295-.193-.472-.574-.472H82.81v.938h.536C83.705,138.605,83.92,138.434,83.92,138.166Z" transform="translate(-75.793 -102.49)" fill="#263238"/>
      <path id="Path_513" data-name="Path 513" d="M88.612,138.227v.536h-.139a.536.536,0,0,0-.536.579v.981H87.32v-2.074h.574v.273A.841.841,0,0,1,88.612,138.227Z" transform="translate(-78.164 -102.964)" fill="#263238"/>
      <path id="Path_514" data-name="Path 514" d="M92.255,139.463H90.69a.536.536,0,0,0,.59.418.7.7,0,0,0,.536-.2l.322.348a1.206,1.206,0,0,1-2.037-.734,1.072,1.072,0,0,1,1.1-1.072,1.029,1.029,0,0,1,1.072,1.072C92.271,139.345,92.26,139.414,92.255,139.463Zm-1.576-.354H91.7a.536.536,0,0,0-1.024,0Z" transform="translate(-79.454 -102.961)" fill="#263238"/>
      <path id="Path_515" data-name="Path 515" d="M94.51,140.143l.2-.434a1.372,1.372,0,0,0,.718.2c.279,0,.386-.075.386-.193,0-.338-1.254,0-1.254-.82,0-.391.354-.67.959-.67a1.688,1.688,0,0,1,.8.182l-.2.429a1.163,1.163,0,0,0-.595-.155c-.268,0-.386.086-.386.193,0,.354,1.254,0,1.254.831,0,.381-.359.659-.981.659a1.78,1.78,0,0,1-.9-.225Z" transform="translate(-81.5 -102.966)" fill="#263238"/>
      <path id="Path_516" data-name="Path 516" d="M98.42,139.289a1.072,1.072,0,0,1,1.152-1.072.949.949,0,0,1,.933.536l-.466.247a.536.536,0,0,0-.466-.284.574.574,0,0,0,0,1.147.5.5,0,0,0,.466-.284l.466.257a.965.965,0,0,1-.933.536,1.072,1.072,0,0,1-1.152-1.083Z" transform="translate(-83.314 -102.959)" fill="#263238"/>
      <path id="Path_517" data-name="Path 517" d="M104.26,138.226v.536h-.134a.536.536,0,0,0-.536.579v.981H103v-2.074h.536v.273a.836.836,0,0,1,.724-.295Z" transform="translate(-85.439 -102.963)" fill="#263238"/>
      <path id="Path_518" data-name="Path 518" d="M105.88,136.83a.343.343,0,0,1,.375-.332.338.338,0,0,1,.375.322.375.375,0,1,1-.75,0Zm.075.627h.6v2.074h-.611Z" transform="translate(-86.776 -102.162)" fill="#263238"/>
      <path id="Path_519" data-name="Path 519" d="M110.442,139.3a1.013,1.013,0,0,1-1.034,1.072.825.825,0,0,1-.627-.252v.965h-.6v-2.819h.574v.236a.82.82,0,0,1,.654-.268,1.013,1.013,0,0,1,1.035,1.067Zm-.611,0a.536.536,0,1,0-.143.4A.536.536,0,0,0,109.831,139.3Z" transform="translate(-87.843 -102.965)" fill="#263238"/>
      <path id="Path_520" data-name="Path 520" d="M114.267,139.893a.858.858,0,0,1-.493.134.681.681,0,0,1-.772-.745v-.852h-.322v-.466H113v-.5h.6v.5h.536v.466H113.6v.842a.241.241,0,0,0,.257.273.4.4,0,0,0,.241-.075Z" transform="translate(-89.931 -102.609)" fill="#263238"/>
      <path id="Path_521" data-name="Path 521" d="M116.13,136.831a.343.343,0,0,1,.375-.332.338.338,0,0,1,.37.322.375.375,0,0,1-.745,0Zm.07.627h.606v2.074H116.2Z" transform="translate(-91.532 -102.162)" fill="#263238"/>
      <path id="Path_522" data-name="Path 522" d="M118.138,139.171a1.142,1.142,0,1,1,1.142,1.072,1.072,1.072,0,0,1-1.142-1.072Zm1.667,0a.536.536,0,1,0-.143.4A.536.536,0,0,0,119.805,139.171Z" transform="translate(-92.462 -102.841)" fill="#263238"/>
      <path id="Path_523" data-name="Path 523" d="M125.266,139.15v1.19h-.584v-1.072c0-.332-.155-.488-.423-.488a.482.482,0,0,0-.493.536v1.029h-.606v-2.074h.579v.241a.906.906,0,0,1,.686-.273.809.809,0,0,1,.842.911Z" transform="translate(-94.793 -102.97)" fill="#263238"/>
      <path id="Path_524" data-name="Path 524" d="M127.83,138.609a.354.354,0,0,1,.37-.37.359.359,0,0,1,.375.37.373.373,0,1,1-.745,0Zm0,1.383a.354.354,0,0,1,.37-.37.359.359,0,0,1,.375.37.37.37,0,0,1-.375.381.364.364,0,0,1-.37-.381Z" transform="translate(-96.96 -102.971)" fill="#263238"/>
    </g>
  </g>
</svg>
